<svg width="40" height="40" viewBox="0 0 40 40" fill="none" xmlns="http://www.w3.org/2000/svg">
<rect x="0.384615" y="0.384615" width="39.2308" height="39.2308" rx="19.6154" fill="white"/>
<rect x="0.384615" y="0.384615" width="39.2308" height="39.2308" rx="19.6154" stroke="#C07E88" stroke-width="0.769231"/>
<path d="M18.1543 7.26953C18.2338 7.28805 18.3478 7.31516 18.4844 7.34766C18.758 7.41275 19.1233 7.50177 19.4912 7.5957C19.8597 7.68977 20.2296 7.78883 20.5117 7.875C20.6528 7.91811 20.7695 7.95724 20.8525 7.99023C20.8944 8.00689 20.925 8.02054 20.9443 8.03125C20.9462 8.03227 20.9478 8.03332 20.9492 8.03418C21.0064 8.14945 21.193 8.54173 21.2676 8.95898C21.3071 9.18029 21.3135 9.39822 21.2607 9.58105C21.2095 9.75858 21.1018 9.90583 20.9023 9.99902C20.4573 10.207 19.8567 10.2652 19.3672 10.2158C19.1227 10.1912 18.9158 10.1405 18.7754 10.0752C18.7051 10.0425 18.6582 10.0092 18.6309 9.97949C18.6052 9.95155 18.6011 9.93234 18.6016 9.91992C18.6049 9.84845 18.5924 9.76824 18.5732 9.6875C18.5538 9.6056 18.525 9.5147 18.4932 9.41797C18.4282 9.22093 18.3482 8.99971 18.2754 8.75195C18.1406 8.29347 18.045 7.77574 18.1523 7.26855L18.1543 7.26953Z" fill="#C8808B" stroke="#C8808B" stroke-width="0.252128"/>
<path d="M18.415 17.0098C18.9845 16.9448 19.5917 17.4672 19.6494 18.1865C19.6972 18.7811 19.6494 19.8539 19.5049 21.0098C19.3604 22.1651 19.1209 23.3908 18.791 24.292C18.654 24.6668 18.5201 24.9315 18.3916 25.1416L18.3711 25.1748L18.373 25.2129C18.3859 25.4784 18.4328 25.93 18.5713 26.6904C18.6406 27.0697 18.6068 27.6892 18.5078 28.4258C18.4095 29.1576 18.2489 29.9899 18.0742 30.7871C17.7259 32.3761 17.3232 33.8099 17.2451 34.0205L17.2441 34.0215L17.21 34.0498L17.2295 34.1279C17.2377 34.1615 17.252 34.2385 17.2412 34.3115C17.2311 34.3797 17.2033 34.4286 17.1357 34.4521C17.003 34.4982 16.6874 34.5696 16.3799 34.6191C16.2271 34.6438 16.0802 34.6628 15.9629 34.6699C15.9042 34.6735 15.8555 34.6733 15.8184 34.6709C15.7776 34.6683 15.765 34.6637 15.7676 34.665C15.76 34.6612 15.7547 34.6565 15.75 34.6533C15.7603 34.6439 15.7774 34.6313 15.8037 34.6162C15.8519 34.5886 15.923 34.5578 16.0234 34.5273C16.1266 34.496 16.2281 34.4707 16.3242 34.4463C16.4189 34.4223 16.5111 34.3988 16.5918 34.374C16.6717 34.3495 16.7494 34.3206 16.8125 34.2822C16.8759 34.2436 16.9386 34.1869 16.9639 34.1016L16.9727 34.0732L16.9678 34.0449C16.9222 33.7701 16.711 32.4191 16.6221 30.8525C16.5328 29.2792 16.5687 27.5143 17.0029 26.3975L17.0967 26.1562L16.9678 26.1943C16.966 26.1859 16.9638 26.1772 16.9619 26.168C16.9421 26.0696 16.9192 25.9268 16.9111 25.7529C16.8966 25.4409 16.9275 25.0302 17.0947 24.5928L17.25 24.7188L17.167 24.3604C16.8059 22.8093 16.4737 20.0677 17.5195 17.791C17.5565 17.7104 17.5966 17.6392 17.6387 17.5742L17.7715 17.3945C17.799 17.361 17.8268 17.3321 17.8623 17.2969L17.8633 17.2979C17.9241 17.2379 17.9857 17.1893 18.0488 17.1504L18.0498 17.1494C18.1052 17.1144 18.1284 17.0955 18.1611 17.0811L18.1602 17.0801C18.2466 17.0422 18.3324 17.019 18.415 17.0098ZM17.2373 34.0459C17.2364 34.0489 17.2357 34.0508 17.2354 34.0518V34.0508L17.2373 34.0449V34.0459Z" fill="#C8808B" stroke="#C8808B" stroke-width="0.252128"/>
<path opacity="0.2" d="M19.1152 17.2158C19.4 17.425 19.6153 17.7729 19.6484 18.1865C19.6963 18.7811 19.6487 19.8538 19.5039 21.0098C19.3592 22.1652 19.1189 23.3904 18.7881 24.292C18.651 24.667 18.5172 24.9324 18.3887 25.1426L18.3682 25.1748L18.3701 25.2139C18.3829 25.4794 18.4299 25.931 18.5684 26.6914C18.6376 27.0707 18.6038 27.6902 18.5049 28.4268C18.4066 29.1585 18.246 29.991 18.0713 30.7881C17.7229 32.3775 17.3202 33.8114 17.2422 34.0215L17.2412 34.0225L17.207 34.0508L17.2266 34.1279C17.2348 34.1614 17.2491 34.2391 17.2383 34.3125C17.2282 34.3806 17.2003 34.4286 17.1328 34.4521C17.1052 34.4618 17.0692 34.471 17.0273 34.4824C17.0595 34.4277 17.0807 34.3705 17.0889 34.3154C17.1026 34.223 17.0887 34.1349 17.0781 34.0781C17.1629 33.8522 17.5702 32.3993 17.9189 30.8076C18.0943 30.0073 18.256 29.1678 18.3555 28.4268C18.4543 27.6903 18.4942 27.0349 18.417 26.6123C18.285 25.8925 18.239 25.4585 18.2246 25.2031C18.3554 24.9842 18.4911 24.7141 18.626 24.3457C18.9664 23.4177 19.2088 22.1702 19.3545 21.0068C19.5001 19.844 19.5508 18.7515 19.501 18.1318C19.472 17.7776 19.3269 17.4599 19.1152 17.2158Z" fill="#C8808B" stroke="#C8808B" stroke-width="0.252128"/>
<path opacity="0.2" d="M15.8711 34.583C15.8741 34.6091 15.8804 34.6353 15.8936 34.6602C15.8954 34.6636 15.8984 34.6666 15.9004 34.6699C15.8688 34.6707 15.8414 34.6734 15.8184 34.6719C15.7781 34.6693 15.7654 34.6639 15.7676 34.665C15.76 34.6611 15.7547 34.6565 15.75 34.6533C15.7603 34.644 15.7775 34.6313 15.8037 34.6162C15.8225 34.6054 15.8449 34.5945 15.8711 34.583ZM17.1602 24.6465C17.0491 25.0308 17.0289 25.3853 17.042 25.665C17.0508 25.8536 17.0756 26.0092 17.0977 26.1182C17.1087 26.1727 17.119 26.2163 17.127 26.2461C17.1284 26.2514 17.1296 26.2563 17.1309 26.2607C16.694 27.4352 16.665 29.2191 16.7529 30.7676C16.8384 32.2722 17.0352 33.5789 17.0938 33.9404C17.0879 33.9466 17.0808 33.9578 17.0645 33.9678C17.0394 33.983 17.0052 33.9963 16.9619 34.0117C16.9069 33.6737 16.7078 32.3631 16.6221 30.8525C16.5328 29.2793 16.5688 27.5152 17.0029 26.3984L17.0967 26.1562L16.9678 26.1943C16.966 26.1859 16.9638 26.1772 16.9619 26.168C16.9421 26.0696 16.9192 25.9268 16.9111 25.7529C16.8966 25.4411 16.9278 25.0308 17.0947 24.5938L17.1602 24.6465ZM17.7842 17.3809C17.7457 17.4438 17.7083 17.5117 17.6738 17.5869C16.6018 19.9208 16.9339 22.7021 17.2949 24.2764C17.2597 24.3572 17.2289 24.4374 17.2021 24.5166L17.167 24.3613C16.8059 22.8105 16.4739 20.0687 17.5195 17.792V17.791C17.5935 17.6297 17.6796 17.5059 17.7715 17.3955V17.3945C17.7754 17.3897 17.7802 17.3855 17.7842 17.3809Z" fill="#C8808B" stroke="#C8808B" stroke-width="0.252128"/>
<path d="M21.4727 17.0898C21.7617 17.1365 22.0771 17.3422 22.3447 17.8086C23.6199 20.0309 23.5434 22.8129 23.3301 24.374L23.2861 24.6895L23.4053 24.5918C23.5855 25.0372 23.6656 25.4552 23.6992 25.7725C23.7179 25.9487 23.7228 26.0936 23.7227 26.1934L23.7217 26.1953L23.6045 26.167L23.7207 26.4072C24.2374 27.4836 24.4411 29.1824 24.5068 30.7178C24.5723 32.2473 24.4994 33.5922 24.4766 33.9463C24.4753 33.9664 24.4766 33.9629 24.4756 33.9756L24.4727 34.0049L24.4844 34.0322C24.5173 34.114 24.583 34.1661 24.6494 34.2002C24.7155 34.2342 24.7958 34.258 24.8779 34.2773C24.9606 34.2968 25.0547 34.3132 25.1514 34.3311L25.459 34.3936C25.5625 34.4177 25.6373 34.4431 25.6885 34.4678C25.7174 34.4818 25.7355 34.4948 25.7471 34.5039C25.7432 34.5068 25.7392 34.5111 25.7334 34.5146C25.737 34.5125 25.7259 34.5182 25.6855 34.5234C25.6489 34.5282 25.5999 34.531 25.541 34.5312C25.4236 34.5316 25.2757 34.5227 25.1211 34.5078C24.8096 34.4779 24.487 34.4262 24.3496 34.3887C24.2778 34.3691 24.2443 34.3206 24.2275 34.2529C24.2096 34.1804 24.2168 34.1022 24.2217 34.0684L24.2324 33.9971L24.1982 33.9697C24.1796 33.9301 24.1386 33.8348 24.0791 33.6846C24.0102 33.5105 23.9193 33.2729 23.8145 32.9893C23.6045 32.4214 23.3388 31.6697 23.082 30.875C22.8252 30.0798 22.5779 29.2423 22.4033 28.5029C22.2276 27.7586 22.1293 27.1289 22.1621 26.7402C22.2265 25.9734 22.2286 25.5195 22.2158 25.2549L22.2139 25.2168L22.1914 25.1865L22.0781 25.0244C21.9625 24.8505 21.8405 24.6381 21.71 24.3643C21.2926 23.486 20.9343 22.2792 20.6777 21.1367C20.4531 20.1363 20.3087 19.1949 20.2695 18.5762L20.2588 18.332C20.2562 18.1563 20.2979 17.992 20.3604 17.8311C20.3709 17.8041 20.3824 17.7789 20.3965 17.751L20.3984 17.748C20.4513 17.6362 20.5134 17.5358 20.5869 17.4492L20.6641 17.3672C20.8915 17.1519 21.1821 17.043 21.4727 17.0898Z" fill="#C8808B" stroke="#C8808B" stroke-width="0.252128"/>
<path opacity="0.2" d="M25.5752 34.4238C25.6228 34.4386 25.6612 34.4532 25.6914 34.4678C25.72 34.4816 25.7384 34.4938 25.75 34.5029C25.746 34.5059 25.7424 34.5109 25.7363 34.5146L25.7354 34.5156C25.7406 34.5123 25.7296 34.519 25.6836 34.5244C25.6734 34.5256 25.6622 34.5245 25.6504 34.5254C25.6337 34.4849 25.6065 34.4516 25.5752 34.4238ZM23.7236 26.4072C24.2403 27.4837 24.4441 29.1824 24.5098 30.7178C24.5752 32.2467 24.5033 33.5907 24.4805 33.9453C24.4791 33.9658 24.4795 33.9628 24.4785 33.9756L24.4766 34.0049L24.4873 34.0322C24.5019 34.0684 24.5241 34.0976 24.5488 34.123C24.496 34.1089 24.4547 34.0965 24.4248 34.0811C24.4067 34.0717 24.3954 34.0639 24.3887 34.0576C24.4125 33.684 24.4841 32.3397 24.4189 30.8115C24.3544 29.2981 24.1554 27.5817 23.6318 26.4531C23.6323 26.4456 23.6332 26.4351 23.6338 26.4229C23.6351 26.3936 23.6357 26.3514 23.6357 26.2979C23.6358 26.274 23.6334 26.2479 23.6328 26.2197L23.7236 26.4072ZM23.4092 24.5918C23.5893 25.037 23.6695 25.4554 23.7031 25.7725C23.7218 25.9484 23.7257 26.0927 23.7256 26.1924L23.7246 26.1943L23.6318 26.1719C23.6289 26.0815 23.6243 25.9731 23.6113 25.8506C23.5773 25.53 23.4987 25.1108 23.3242 24.6611L23.4092 24.5918ZM21.6533 17.1416C21.8885 17.2308 22.1333 17.434 22.3477 17.8076C23.623 20.0299 23.5463 22.8119 23.333 24.373L23.3008 24.6045C23.2831 24.5608 23.2647 24.5168 23.2451 24.4727C23.4568 22.887 23.5314 20.064 22.2246 17.7871C22.0556 17.4927 21.8602 17.2811 21.6533 17.1416Z" fill="#C8808B" stroke="#C8808B" stroke-width="0.252128"/>
<g opacity="0.2">
<mask id="path-8-inside-1_309_1016" fill="white">
<path d="M24.4908 34.3568C24.2313 34.2853 24.26 33.9751 24.2715 33.8958L24.2705 33.895C24.1307 33.6486 22.072 28.22 22.2108 26.5758C22.275 25.8124 22.2769 25.3646 22.2645 25.1073C22.1103 24.899 21.9475 24.6362 21.7704 24.2646C20.9239 22.4836 20.3273 19.3966 20.3072 18.1799C20.3043 17.9832 20.3503 17.8021 20.4173 17.6311C20.4298 17.5992 20.4441 17.5712 20.4585 17.5401C20.5265 17.3955 20.6175 17.2719 20.7228 17.1631C20.673 17.1981 20.6222 17.2331 20.5772 17.2758C20.4556 17.3916 20.3599 17.5339 20.2842 17.694C20.2689 17.7244 20.2555 17.7531 20.2431 17.785C20.177 17.9553 20.1301 18.1364 20.1329 18.3338C20.153 19.5505 20.7496 22.6375 21.5961 24.4185C21.7732 24.7901 21.936 25.0529 22.0902 25.2612C22.1026 25.5186 22.1007 25.9663 22.0366 26.7298C21.8977 28.3732 23.9565 33.8025 24.0963 34.049L24.0972 34.0497C24.0857 34.1283 24.057 34.4392 24.3165 34.51C24.6124 34.5908 25.6389 34.7199 25.7988 34.6219C25.8582 34.5854 25.8783 34.541 25.8725 34.4944C25.5642 34.5341 24.7493 34.4275 24.4908 34.3568Z"/>
</mask>
<path d="M24.4908 34.3568C24.2313 34.2853 24.26 33.9751 24.2715 33.8958L24.2705 33.895C24.1307 33.6486 22.072 28.22 22.2108 26.5758C22.275 25.8124 22.2769 25.3646 22.2645 25.1073C22.1103 24.899 21.9475 24.6362 21.7704 24.2646C20.9239 22.4836 20.3273 19.3966 20.3072 18.1799C20.3043 17.9832 20.3503 17.8021 20.4173 17.6311C20.4298 17.5992 20.4441 17.5712 20.4585 17.5401C20.5265 17.3955 20.6175 17.2719 20.7228 17.1631C20.673 17.1981 20.6222 17.2331 20.5772 17.2758C20.4556 17.3916 20.3599 17.5339 20.2842 17.694C20.2689 17.7244 20.2555 17.7531 20.2431 17.785C20.177 17.9553 20.1301 18.1364 20.1329 18.3338C20.153 19.5505 20.7496 22.6375 21.5961 24.4185C21.7732 24.7901 21.936 25.0529 22.0902 25.2612C22.1026 25.5186 22.1007 25.9663 22.0366 26.7298C21.8977 28.3732 23.9565 33.8025 24.0963 34.049L24.0972 34.0497C24.0857 34.1283 24.057 34.4392 24.3165 34.51C24.6124 34.5908 25.6389 34.7199 25.7988 34.6219C25.8582 34.5854 25.8783 34.541 25.8725 34.4944C25.5642 34.5341 24.7493 34.4275 24.4908 34.3568Z" fill="#C8808B"/>
<path d="M24.4908 34.3568L24.4238 34.5999L24.4242 34.6L24.4908 34.3568ZM24.2715 33.8958L24.521 33.932L24.5415 33.7903L24.4304 33.7001L24.2715 33.8958ZM24.2705 33.895L24.0512 34.0194L24.0747 34.0608L24.1116 34.0908L24.2705 33.895ZM22.2108 26.5758L22.4621 26.597L22.4621 26.5969L22.2108 26.5758ZM22.2645 25.1073L22.5163 25.0951L22.5126 25.0188L22.4671 24.9573L22.2645 25.1073ZM21.7704 24.2646L21.5426 24.3728L21.5428 24.3731L21.7704 24.2646ZM20.3072 18.1799L20.0551 18.1836L20.0551 18.1841L20.3072 18.1799ZM20.4173 17.6311L20.6521 17.7231L20.6522 17.7228L20.4173 17.6311ZM20.4585 17.5401L20.2303 17.4328L20.2296 17.4344L20.4585 17.5401ZM20.7228 17.1631L20.904 17.3384L20.5778 16.9568L20.7228 17.1631ZM20.5772 17.2758L20.4036 17.093L20.4034 17.0932L20.5772 17.2758ZM20.2842 17.694L20.5093 17.8078L20.5122 17.8017L20.2842 17.694ZM20.2431 17.785L20.0082 17.6933L20.008 17.6938L20.2431 17.785ZM20.1329 18.3338L19.8808 18.3375L19.8808 18.338L20.1329 18.3338ZM21.5961 24.4185L21.3684 24.5268L21.3685 24.527L21.5961 24.4185ZM22.0902 25.2612L22.342 25.2491L22.3383 25.1727L22.2929 25.1113L22.0902 25.2612ZM22.0366 26.7298L22.2878 26.751L22.2878 26.7509L22.0366 26.7298ZM24.0963 34.049L23.877 34.1734L23.9004 34.2147L23.9373 34.2447L24.0963 34.049ZM24.0972 34.0497L24.3467 34.0862L24.3675 33.9444L24.2561 33.854L24.0972 34.0497ZM24.3165 34.51L24.383 34.2667L24.3828 34.2667L24.3165 34.51ZM25.7988 34.6219L25.9305 34.8369L25.9309 34.8366L25.7988 34.6219ZM25.8725 34.4944L26.1228 34.4636L26.0918 34.212L25.8404 34.2443L25.8725 34.4944ZM24.4908 34.3568L24.5578 34.1137C24.5424 34.1095 24.5398 34.1052 24.5392 34.1044C24.5363 34.101 24.5298 34.0909 24.5243 34.0687C24.5122 34.0197 24.5168 33.9608 24.521 33.932L24.2715 33.8958L24.022 33.8596C24.0147 33.9101 23.9992 34.0459 24.0347 34.1897C24.0727 34.3433 24.1789 34.5324 24.4238 34.5999L24.4908 34.3568ZM24.2715 33.8958L24.4304 33.7001L24.4295 33.6993L24.2705 33.895L24.1116 34.0908L24.1126 34.0915L24.2715 33.8958ZM24.2705 33.895L24.4898 33.7706C24.4914 33.7734 24.489 33.7693 24.4814 33.7525C24.4747 33.7378 24.4659 33.7177 24.455 33.692C24.4334 33.6408 24.4049 33.571 24.3706 33.4844C24.3021 33.3113 24.2114 33.0745 24.1067 32.7912C23.8972 32.2246 23.6323 31.4749 23.3761 30.6821C23.1198 29.8886 22.8733 29.0553 22.6998 28.3205C22.524 27.5758 22.4311 26.9637 22.4621 26.597L22.2108 26.5758L21.9596 26.5546C21.9211 27.01 22.0336 27.6931 22.209 28.4364C22.3869 29.1896 22.6378 30.0371 22.8963 30.8371C23.1549 31.6377 23.4222 32.3941 23.6337 32.9661C23.7395 33.2521 23.8315 33.4926 23.9018 33.6701C23.9678 33.8369 24.0229 33.9694 24.0512 34.0194L24.2705 33.895ZM22.2108 26.5758L22.4621 26.5969C22.5268 25.8265 22.5294 25.367 22.5163 25.0951L22.2645 25.1073L22.0126 25.1195C22.0244 25.3623 22.0232 25.7983 21.9596 26.5547L22.2108 26.5758ZM22.2645 25.1073L22.4671 24.9573C22.3235 24.7633 22.1689 24.5146 21.9979 24.1561L21.7704 24.2646L21.5428 24.3731C21.7262 24.7578 21.8971 25.0347 22.0618 25.2573L22.2645 25.1073ZM21.7704 24.2646L21.9981 24.1564C21.5865 23.2904 21.2306 22.0941 20.9749 20.9554C20.7189 19.8153 20.5689 18.7588 20.5593 18.1758L20.3072 18.1799L20.0551 18.1841C20.0656 18.8177 20.224 19.913 20.4829 21.0659C20.7421 22.2201 21.1078 23.4578 21.5426 24.3728L21.7704 24.2646ZM20.3072 18.1799L20.5593 18.1762C20.5571 18.0221 20.5928 17.8744 20.6521 17.7231L20.4173 17.6311L20.1826 17.5391C20.1078 17.7298 20.0516 17.9444 20.0551 18.1836L20.3072 18.1799ZM20.4173 17.6311L20.6522 17.7228C20.661 17.7003 20.6676 17.6888 20.6874 17.6458L20.4585 17.5401L20.2296 17.4344C20.2207 17.4537 20.1986 17.4981 20.1825 17.5394L20.4173 17.6311ZM20.4585 17.5401L20.6867 17.6474C20.7411 17.5317 20.8148 17.4306 20.904 17.3384L20.7228 17.1631L20.5416 16.9877C20.4201 17.1133 20.3119 17.2593 20.2303 17.4328L20.4585 17.5401ZM20.7228 17.1631L20.5778 16.9568C20.5324 16.9887 20.4648 17.0349 20.4036 17.093L20.5772 17.2758L20.7509 17.4586C20.7797 17.4313 20.8136 17.4074 20.8677 17.3694L20.7228 17.1631ZM20.5772 17.2758L20.4034 17.0932C20.2548 17.2348 20.1422 17.4043 20.0563 17.5864L20.2842 17.694L20.5122 17.8017C20.5775 17.6635 20.6565 17.5485 20.7511 17.4584L20.5772 17.2758ZM20.2842 17.694L20.0592 17.5803C20.0415 17.6153 20.0244 17.6517 20.0082 17.6933L20.2431 17.785L20.4779 17.8767C20.4866 17.8545 20.4963 17.8334 20.5093 17.8078L20.2842 17.694ZM20.2431 17.785L20.008 17.6938C19.9348 17.8824 19.8773 18.097 19.8808 18.3375L20.1329 18.3338L20.385 18.3302C20.3828 18.1758 20.4192 18.0281 20.4781 17.8762L20.2431 17.785ZM20.1329 18.3338L19.8808 18.338C19.8913 18.9716 20.0497 20.0669 20.3086 21.2198C20.5678 22.374 20.9335 23.6118 21.3684 24.5268L21.5961 24.4185L21.8238 24.3103C21.4122 23.4443 21.0563 22.248 20.8006 21.1093C20.5446 19.9693 20.3947 18.9127 20.385 18.3297L20.1329 18.3338ZM21.5961 24.4185L21.3685 24.527C21.5519 24.9117 21.7228 25.1886 21.8875 25.4112L22.0902 25.2612L22.2929 25.1113C22.1492 24.9172 21.9946 24.6686 21.8237 24.31L21.5961 24.4185ZM22.0902 25.2612L21.8383 25.2734C21.8501 25.5162 21.8489 25.9522 21.7853 26.7086L22.0366 26.7298L22.2878 26.7509C22.3525 25.9805 22.3552 25.5209 22.342 25.2491L22.0902 25.2612ZM22.0366 26.7298L21.7853 26.7085C21.7469 27.1638 21.8593 27.8468 22.0348 28.59C22.2126 29.3431 22.4635 30.1907 22.722 30.9907C22.9807 31.7914 23.2479 32.5479 23.4594 33.1199C23.5652 33.4059 23.6572 33.6465 23.7275 33.8239C23.7936 33.9908 23.8486 34.1234 23.877 34.1734L24.0963 34.049L24.3156 33.9245C24.3171 33.9273 24.3148 33.9233 24.3071 33.9065C24.3004 33.8917 24.2916 33.8716 24.2808 33.846C24.2591 33.7947 24.2306 33.7249 24.1963 33.6383C24.1278 33.4652 24.0372 33.2284 23.9324 32.945C23.7229 32.3784 23.458 31.6286 23.2018 30.8357C22.9455 30.0422 22.699 29.2088 22.5255 28.4741C22.3497 27.7294 22.2568 27.1174 22.2878 26.751L22.0366 26.7298ZM24.0963 34.049L23.9373 34.2447L23.9383 34.2455L24.0972 34.0497L24.2561 33.854L24.2552 33.8532L24.0963 34.049ZM24.0972 34.0497L23.8477 34.0132C23.8404 34.0637 23.825 34.1995 23.8605 34.3432C23.8984 34.4967 24.0047 34.6863 24.2502 34.7532L24.3165 34.51L24.3828 34.2667C24.3677 34.2626 24.3653 34.2584 24.3648 34.2578C24.362 34.2545 24.3555 34.2445 24.35 34.2223C24.3379 34.1732 24.3426 34.1143 24.3467 34.0862L24.0972 34.0497ZM24.3165 34.51L24.25 34.7532C24.4191 34.7994 24.7668 34.8534 25.0845 34.8839C25.2455 34.8994 25.4072 34.9097 25.5422 34.9092C25.6093 34.909 25.6752 34.9061 25.7337 34.8986C25.7825 34.8923 25.862 34.8789 25.9305 34.8369L25.7988 34.6219L25.6671 34.4069C25.6956 34.3894 25.7081 34.3934 25.669 34.3985C25.6395 34.4023 25.5967 34.4048 25.5405 34.405C25.4288 34.4053 25.2854 34.3967 25.1327 34.382C24.8233 34.3523 24.5098 34.3014 24.383 34.2667L24.3165 34.51ZM25.7988 34.6219L25.9309 34.8366C25.988 34.8015 26.0436 34.752 26.0814 34.6828C26.1205 34.6111 26.1315 34.5347 26.1228 34.4636L25.8725 34.4944L25.6223 34.5252C25.6193 34.5008 25.6231 34.4698 25.6388 34.4411C25.6531 34.4149 25.669 34.4057 25.6666 34.4072L25.7988 34.6219ZM25.8725 34.4944L25.8404 34.2443C25.72 34.2598 25.4673 34.2471 25.1908 34.2164C24.9191 34.1862 24.6668 34.1436 24.5573 34.1136L24.4908 34.3568L24.4242 34.6C24.5733 34.6408 24.8577 34.6868 25.1351 34.7176C25.4078 34.7479 25.7167 34.7686 25.9047 34.7445L25.8725 34.4944Z" fill="#C8808B" mask="url(#path-8-inside-1_309_1016)"/>
</g>
<path d="M17.7588 10.5264C17.7587 10.5775 17.7563 10.6426 17.7432 10.7207C17.7056 10.9443 17.5946 11.2781 17.291 11.6924C16.9817 12.1138 16.4286 12.723 15.9023 13.248C15.6397 13.51 15.3854 13.7494 15.1738 13.9326C15.068 14.0242 14.974 14.1011 14.8955 14.1592C14.815 14.2188 14.7578 14.2528 14.7246 14.2666C14.561 14.3345 14.3821 14.3255 14.2734 14.2754C14.22 14.2507 14.1959 14.2222 14.1875 14.2021C14.1814 14.1872 14.1765 14.1583 14.207 14.1074C14.3135 13.9298 14.6153 13.2132 15.2178 12.4258C15.7916 11.6758 16.6207 10.891 17.7588 10.5264Z" fill="#C8808B" stroke="#C8808B" stroke-width="0.252128"/>
<path d="M20.2598 10.1719C20.8245 10.1947 21.3657 10.2684 21.7803 10.3809C21.9879 10.4372 22.159 10.5024 22.2842 10.5723C22.4132 10.6443 22.4746 10.7115 22.4941 10.7627C22.7332 11.3893 22.6027 12.1077 22.3984 12.9141C22.1975 13.7072 21.9272 14.5799 21.9424 15.46C21.9561 16.2656 22.1781 16.9795 22.3711 17.5449C22.4686 17.8306 22.5559 18.072 22.6104 18.2754C22.665 18.4794 22.6754 18.6142 22.6494 18.7002C22.6453 18.7039 22.6368 18.7123 22.6182 18.7227C22.5813 18.7431 22.5244 18.7652 22.4463 18.7871C22.2906 18.8307 22.071 18.8677 21.8057 18.8975C21.2763 18.9567 20.5823 18.9839 19.8916 18.9756C19.2005 18.9673 18.5179 18.9242 18.0107 18.8447C17.7562 18.8048 17.5529 18.7563 17.416 18.7021C17.347 18.6749 17.3023 18.6494 17.2773 18.6279C17.253 18.607 17.2596 18.6017 17.2598 18.6123C17.2598 18.4794 17.3061 18.3129 17.3848 18.0996C17.4235 17.9946 17.4688 17.8821 17.5176 17.7598C17.5662 17.6378 17.6185 17.5063 17.6699 17.3672C17.8759 16.8098 18.0737 16.1157 18.0283 15.2744C18.0068 14.8748 17.8788 14.4604 17.7266 14.0518C17.571 13.6344 17.3961 13.235 17.2598 12.8291C17.1251 12.428 17.0386 12.0466 17.0615 11.6914C17.0842 11.3412 17.2137 11.0107 17.5225 10.707C17.7262 10.5068 18.1154 10.3572 18.6172 10.2666C19.1128 10.1771 19.6951 10.149 20.2598 10.1719Z" fill="#C8808B" stroke="#C8808B" stroke-width="0.252128"/>
<path opacity="0.2" d="M18.4141 17.0098C18.9478 16.9489 19.5146 17.4039 19.6318 18.0537L19.6494 18.1865C19.7128 18.971 19.6034 20.5796 19.333 22.1123C18.9121 22.1078 18.5243 22.0951 18.2061 22.0742C17.8574 22.0513 17.6011 22.0217 17.4756 21.9902C17.0954 21.8945 16.9166 21.7688 16.8252 21.6572C16.7948 20.4037 16.9492 19.0307 17.5186 17.791C17.5926 17.6296 17.6776 17.505 17.7695 17.3945H17.7705C17.7981 17.361 17.8257 17.3322 17.8613 17.2969L17.8623 17.2979C17.9231 17.2379 17.9847 17.1893 18.0479 17.1504L18.0488 17.1494C18.104 17.1146 18.1266 17.0955 18.1592 17.0811C18.2024 17.0621 18.2456 17.0472 18.2881 17.0352L18.4141 17.0098Z" fill="#C8808B" stroke="#C8808B" stroke-width="0.252128"/>
<path opacity="0.2" d="M21.4727 17.0898C21.7617 17.1365 22.0771 17.3422 22.3447 17.8086C23.0366 19.0152 23.3223 20.3831 23.4121 21.6396C23.204 21.7547 22.8638 21.8509 22.4307 21.9238C21.9849 21.9989 21.458 22.0471 20.9131 22.0762C20.5689 20.7983 20.3374 19.4798 20.2754 18.6592L20.2588 18.332C20.2562 18.1563 20.2979 17.992 20.3604 17.8311C20.3709 17.8041 20.3824 17.7789 20.3965 17.751L20.3984 17.748C20.4513 17.6362 20.5134 17.5358 20.5869 17.4492L20.6641 17.3672C20.8915 17.1519 21.1821 17.043 21.4727 17.0898Z" fill="#C8808B" stroke="#C8808B" stroke-width="0.252128"/>
<path d="M19.7705 11.1953C21.0521 11.1583 21.8271 11.355 22.2529 11.6309C22.4635 11.7674 22.5856 11.9214 22.6465 12.0742C22.7073 12.2272 22.7106 12.3883 22.667 12.5459C22.6183 12.722 22.5352 12.9487 22.4414 13.2227C22.3487 13.4934 22.2476 13.8039 22.167 14.1357C22.0063 14.7975 21.924 15.5582 22.1611 16.2764C22.2743 16.6199 22.4107 17.0189 22.5537 17.4395C22.6968 17.8603 22.8469 18.3032 22.9893 18.7354C23.2749 19.6021 23.5257 20.4182 23.624 20.9268C23.6356 20.9869 23.6141 21.0561 23.4971 21.1387C23.3784 21.2223 23.1875 21.2988 22.9346 21.3652C22.4314 21.4973 21.7258 21.5782 20.9805 21.6201C20.2371 21.6619 19.4602 21.6642 18.8174 21.6436C18.1697 21.6228 17.6717 21.5785 17.4756 21.5293C17.0683 21.427 16.8889 21.2917 16.8037 21.1738C16.7604 21.1139 16.7371 21.054 16.7227 20.9922L16.6943 20.7998L16.6953 20.6602C16.6994 20.5872 16.7081 20.4927 16.7207 20.3809C16.7459 20.1572 16.7883 19.8652 16.8506 19.5342C16.9754 18.8714 17.1779 18.0559 17.4727 17.3174C17.7766 16.5555 17.8921 15.8985 17.874 15.2969C17.8559 14.6955 17.7047 14.156 17.4854 13.6289C17.2718 13.1154 17.1726 12.7853 17.127 12.5869C17.1042 12.4879 17.0946 12.4218 17.0908 12.3828C17.089 12.3635 17.089 12.3505 17.0889 12.3438C17.0889 12.3426 17.0889 12.3416 17.0889 12.3408L17.0918 12.3027L17.0732 12.2695C17.0191 12.1713 17.0147 11.9409 17.3896 11.6982C17.7643 11.4559 18.4882 11.2324 19.7705 11.1953Z" fill="#C8808B" stroke="#C8808B" stroke-width="0.252128"/>
<path opacity="0.4" d="M17.1172 18.3838C17.0338 18.708 16.9637 19.021 16.9102 19.3057C16.8469 19.642 16.8033 19.9397 16.7773 20.1699C16.7644 20.2849 16.7554 20.384 16.751 20.4629C16.7467 20.5391 16.7456 20.605 16.751 20.6484C16.7651 20.7637 16.7751 20.9559 16.9072 21.1387C17.0228 21.2985 17.2203 21.438 17.5547 21.5439C17.5246 21.5385 17.4979 21.5349 17.4756 21.5293C17.0684 21.427 16.889 21.2918 16.8037 21.1738C16.7171 21.054 16.7108 20.9341 16.6943 20.7998C16.692 20.7807 16.6911 20.7354 16.6953 20.6602C16.6994 20.5872 16.7081 20.4927 16.7207 20.3809C16.7459 20.1573 16.7883 19.8651 16.8506 19.5342C16.9168 19.1822 17.005 18.7873 17.1172 18.3838ZM17.1045 11.9863C17.1045 12.05 17.1185 12.1103 17.1436 12.168C17.1439 12.1819 17.1451 12.2006 17.1475 12.2246C17.1525 12.2761 17.1646 12.3529 17.1895 12.4609C17.2392 12.6767 17.3429 13.0201 17.5596 13.542C17.7711 14.0506 17.9118 14.5598 17.9287 15.1221C17.9407 15.5203 17.8894 15.9484 17.7549 16.4258C17.8478 16.0235 17.8847 15.6507 17.874 15.2969C17.8559 14.6953 17.7047 14.1555 17.4854 13.6279C17.2719 13.1149 17.1726 12.7854 17.127 12.5869C17.1042 12.4878 17.0946 12.4219 17.0908 12.3828C17.0889 12.3634 17.089 12.3506 17.0889 12.3438C17.0888 12.3422 17.0889 12.3408 17.0889 12.3398L17.0918 12.3027L17.0732 12.2695C17.0407 12.2107 17.0305 12.1158 17.0986 11.9961C17.1005 11.9928 17.1025 11.9896 17.1045 11.9863Z" fill="#C8808B" stroke="#C8808B" stroke-width="0.252128"/>
<path opacity="0.2" d="M19.7715 11.1953C21.0528 11.1583 21.8271 11.3551 22.2529 11.6309C22.4638 11.7674 22.5866 11.9212 22.6475 12.0742C22.7083 12.2272 22.7115 12.3883 22.668 12.5459C22.6193 12.722 22.5371 12.9488 22.4434 13.2227C22.3507 13.4935 22.2495 13.8038 22.1689 14.1357C22.0083 14.7976 21.9255 15.5581 22.1621 16.2764C22.2753 16.6199 22.4117 17.0189 22.5547 17.4395C22.6978 17.8603 22.8478 18.3032 22.9902 18.7354C23.2758 19.6021 23.5267 20.4182 23.625 20.9268V20.9277C23.6355 20.9818 23.618 21.0425 23.5205 21.1172C23.4683 21.1572 23.3986 21.1952 23.3135 21.2324C23.3136 21.2104 23.3122 21.1876 23.3076 21.1641C23.2058 20.6372 22.9498 19.8056 22.665 18.9414C22.5222 18.5079 22.3716 18.0634 22.2285 17.6426C22.0854 17.2217 21.9496 16.8244 21.8369 16.4824C21.6212 15.8294 21.6924 15.1226 21.8486 14.4795C21.9265 14.159 22.0243 13.8573 22.1162 13.5889C22.2071 13.3234 22.2943 13.0833 22.3457 12.8975C22.4022 12.6933 22.4008 12.4753 22.3174 12.2656C22.2339 12.0559 22.072 11.863 21.8252 11.7031C21.3365 11.3868 20.5022 11.1899 19.2061 11.2266C19.3808 11.2121 19.5692 11.2012 19.7715 11.1953Z" fill="#C8808B" stroke="#C8808B" stroke-width="0.252128"/>
<path opacity="0.2" d="M17.7031 11.5498C17.5312 12.4517 17.7897 13.2031 18.04 13.877C18.3157 14.6188 18.5682 15.2438 18.3438 15.9219C18.2186 16.3006 18.0716 16.6777 17.9248 17.0488C17.7785 17.4186 17.6313 17.7843 17.5068 18.1367C17.2594 18.8374 17.0917 19.5128 17.208 20.1016C17.2386 20.2571 17.3431 20.3952 17.4824 20.5146C17.6234 20.6355 17.8117 20.7478 18.0322 20.8496C18.4736 21.0533 19.0629 21.2241 19.7139 21.3398C20.598 21.4971 21.6104 21.5544 22.5371 21.4473C22.0228 21.5419 21.3864 21.6023 20.7344 21.6318C20.0271 21.6638 19.3058 21.6632 18.7129 21.6416C18.1158 21.6198 17.661 21.5774 17.4756 21.5312C17.0684 21.4289 16.889 21.2928 16.8037 21.1748C16.7174 21.0551 16.7108 20.9358 16.6943 20.8018C16.692 20.7828 16.6911 20.7369 16.6953 20.6611C16.6994 20.5883 16.7081 20.4945 16.7207 20.3828C16.7459 20.1592 16.7883 19.8671 16.8506 19.5361C16.9754 18.8733 17.1779 18.0579 17.4727 17.3193C17.7768 16.5569 17.8921 15.8996 17.874 15.2979C17.8559 14.6966 17.7046 14.1572 17.4854 13.6299C17.2718 13.1167 17.1726 12.7864 17.127 12.5879C17.1042 12.4889 17.0946 12.4229 17.0908 12.3838C17.0889 12.3644 17.089 12.3515 17.0889 12.3447C17.0889 12.3436 17.0889 12.3426 17.0889 12.3418L17.0918 12.3037L17.0732 12.2705C17.0355 12.2022 17.0269 12.0837 17.1387 11.9355C17.2318 11.8123 17.4067 11.674 17.7031 11.5498Z" fill="#C8808B" stroke="#C8808B" stroke-width="0.252128"/>
<path opacity="0.4" d="M17.3379 18.0508C17.4343 18.0979 17.4837 18.151 17.5107 18.2012C17.537 18.2499 17.5456 18.3068 17.5469 18.374C17.54 18.3821 17.5282 18.3953 17.5068 18.4102C17.4603 18.4424 17.3917 18.4756 17.3135 18.5039C17.2358 18.532 17.1544 18.5532 17.0869 18.5635C17.0816 18.5643 17.0763 18.5638 17.0713 18.5645C17.1202 18.3757 17.1737 18.1858 17.2334 17.9951L17.3379 18.0508Z" fill="#C8808B" stroke="#C8808B" stroke-width="0.252128"/>
<path d="M14.4932 14.0557C14.7519 14.026 15.1183 14.1578 15.3809 14.5234C15.4615 14.6358 15.5899 14.8666 15.7402 15.1602C15.8892 15.4509 16.0561 15.7961 16.2129 16.1328C16.3697 16.4697 16.5158 16.7978 16.624 17.0527C16.6782 17.1804 16.7228 17.289 16.7539 17.3711C16.7694 17.4121 16.781 17.4455 16.7891 17.4707C16.7979 17.4983 16.7999 17.5076 16.7998 17.5059L16.8027 17.5342L16.8174 17.5596C16.8232 17.569 16.8318 17.5752 16.8389 17.582C16.8572 17.6121 16.8781 17.6392 16.9014 17.6611C16.9361 17.6938 16.9782 17.7238 17.0225 17.752C17.1106 17.808 17.222 17.8648 17.3379 17.9209C17.4343 17.9676 17.4838 18.0203 17.5107 18.0703C17.5369 18.1189 17.5462 18.1757 17.5479 18.2432C17.541 18.2512 17.5293 18.2644 17.5078 18.2793C17.4612 18.3115 17.3919 18.3447 17.3135 18.373C17.236 18.401 17.1553 18.4214 17.0879 18.4316C17.0541 18.4368 17.0253 18.4388 17.0039 18.4385C16.9806 18.4381 16.9745 18.4358 16.9785 18.4375C16.9236 18.4139 16.834 18.3532 16.7568 18.2793C16.7192 18.2432 16.6882 18.2073 16.667 18.1748C16.645 18.1411 16.6402 18.1206 16.6396 18.1133V18.1123L16.627 18.0322C16.6082 17.9498 16.5718 17.8629 16.542 17.7988C16.5205 17.7527 16.4991 17.7111 16.4834 17.6816C16.4756 17.667 16.4695 17.6548 16.4648 17.6465C16.4625 17.6424 16.4603 17.639 16.459 17.6367C16.4584 17.6358 16.4574 17.6354 16.457 17.6348V17.6328L16.4395 17.6025L16.415 17.5889C16.4117 17.5858 16.4078 17.5814 16.4023 17.5762C16.3862 17.5608 16.3627 17.5382 16.334 17.5088C16.2767 17.4501 16.1972 17.366 16.1025 17.2627C15.913 17.0559 15.6625 16.7714 15.4043 16.4541C15.1459 16.1365 14.8808 15.787 14.6602 15.4492C14.4383 15.1094 14.2666 14.7893 14.1895 14.5293C14.143 14.3728 14.1687 14.2648 14.2188 14.1953C14.2707 14.1235 14.3643 14.0705 14.4932 14.0557Z" fill="#C8808B" stroke="#C8808B" stroke-width="0.252128"/>
<g opacity="0.3">
<mask id="path-20-inside-2_309_1016" fill="white">
<path d="M17.015 18.3369C16.8704 18.2747 16.6071 18.057 16.5994 17.9023C16.5917 17.753 16.4337 17.4794 16.4337 17.4794C16.3677 17.4436 14.4842 15.4597 14.1548 14.348C14.1289 14.2594 14.1232 14.1809 14.1299 14.1094C14.0437 14.2182 14.0102 14.3706 14.0676 14.5649C14.397 15.6766 16.2805 17.6605 16.3466 17.6963C16.3466 17.6963 16.5046 17.9699 16.5123 18.1192C16.5199 18.2739 16.7833 18.4908 16.9278 18.553C17.0724 18.6152 17.6747 18.4255 17.6747 18.256C17.6747 18.2265 17.6594 18.2 17.6565 18.1713C17.4775 18.291 17.1222 18.3835 17.015 18.3369Z"/>
</mask>
<path d="M17.015 18.3369C16.8704 18.2747 16.6071 18.057 16.5994 17.9023C16.5917 17.753 16.4337 17.4794 16.4337 17.4794C16.3677 17.4436 14.4842 15.4597 14.1548 14.348C14.1289 14.2594 14.1232 14.1809 14.1299 14.1094C14.0437 14.2182 14.0102 14.3706 14.0676 14.5649C14.397 15.6766 16.2805 17.6605 16.3466 17.6963C16.3466 17.6963 16.5046 17.9699 16.5123 18.1192C16.5199 18.2739 16.7833 18.4908 16.9278 18.553C17.0724 18.6152 17.6747 18.4255 17.6747 18.256C17.6747 18.2265 17.6594 18.2 17.6565 18.1713C17.4775 18.291 17.1222 18.3835 17.015 18.3369Z" fill="#C8808B"/>
<path d="M17.015 18.3369L17.1155 18.1057L17.1146 18.1053L17.015 18.3369ZM16.5994 17.9023L16.8512 17.8898L16.8512 17.8894L16.5994 17.9023ZM16.4337 17.4794L16.6521 17.3533L16.6164 17.2916L16.5538 17.2577L16.4337 17.4794ZM14.1548 14.348L13.9127 14.4186L13.913 14.4197L14.1548 14.348ZM14.1299 14.1094L14.3809 14.1329L14.4603 13.286L13.9322 13.9529L14.1299 14.1094ZM14.0676 14.5649L13.8258 14.6364L13.8259 14.6366L14.0676 14.5649ZM16.3466 17.6963L16.565 17.5702L16.5293 17.5085L16.4666 17.4746L16.3466 17.6963ZM16.5123 18.1192L16.7641 18.1067L16.7641 18.1063L16.5123 18.1192ZM17.6565 18.1713L17.9074 18.1462L17.8657 17.7282L17.5164 17.9617L17.6565 18.1713ZM17.015 18.3369L17.1146 18.1053C17.0773 18.0892 17 18.0392 16.9305 17.9725C16.8973 17.9405 16.8731 17.9116 16.8587 17.8894C16.8418 17.8634 16.85 17.865 16.8512 17.8898L16.5994 17.9023L16.3476 17.9148C16.3526 18.017 16.3967 18.1038 16.4358 18.1641C16.4774 18.2281 16.5295 18.2865 16.5812 18.3361C16.6814 18.4324 16.8081 18.5223 16.9154 18.5685L17.015 18.3369ZM16.5994 17.9023L16.8512 17.8894C16.8445 17.7597 16.7815 17.6128 16.7423 17.5286C16.7197 17.4798 16.6975 17.4367 16.681 17.4058C16.6727 17.3903 16.6658 17.3776 16.6608 17.3686C16.6582 17.3642 16.6562 17.3606 16.6548 17.358C16.654 17.3567 16.6534 17.3557 16.653 17.3549C16.6528 17.3545 16.6526 17.3542 16.6524 17.3539C16.6523 17.3538 16.6523 17.3537 16.6522 17.3536C16.6522 17.3535 16.6522 17.3535 16.6521 17.3534C16.6521 17.3534 16.6521 17.3534 16.6521 17.3534C16.6521 17.3534 16.6521 17.3533 16.4337 17.4794C16.2154 17.6055 16.2154 17.6054 16.2154 17.6054C16.2154 17.6054 16.2154 17.6054 16.2154 17.6054C16.2153 17.6054 16.2153 17.6053 16.2153 17.6053C16.2153 17.6053 16.2153 17.6053 16.2153 17.6053C16.2153 17.6053 16.2153 17.6054 16.2154 17.6055C16.2156 17.6058 16.2159 17.6063 16.2163 17.607C16.2171 17.6085 16.2185 17.611 16.2203 17.6142C16.224 17.6208 16.2295 17.6307 16.2361 17.6432C16.2495 17.6683 16.2673 17.7029 16.285 17.7411C16.3031 17.7799 16.3196 17.8193 16.3316 17.8546C16.3376 17.872 16.3418 17.8867 16.3445 17.8983C16.3473 17.9104 16.3476 17.9157 16.3476 17.9152L16.5994 17.9023ZM16.4337 17.4794L16.5538 17.2577C16.5811 17.2725 16.5985 17.2896 16.5886 17.2809C16.587 17.2795 16.5828 17.2757 16.5753 17.2685C16.5606 17.2544 16.539 17.2329 16.5107 17.204C16.4545 17.1465 16.3761 17.0637 16.282 16.961C16.0937 16.7556 15.8451 16.4733 15.5886 16.1581C15.3317 15.8423 15.0691 15.4964 14.8516 15.1634C14.6316 14.8265 14.4683 14.5187 14.3965 14.2764L14.1548 14.348L13.913 14.4197C14.0059 14.7332 14.2016 15.0902 14.4294 15.4391C14.6598 15.7919 14.934 16.1526 15.1974 16.4763C15.4612 16.8005 15.7164 17.0903 15.9102 17.3017C16.0071 17.4074 16.0893 17.4942 16.15 17.5564C16.1802 17.5873 16.2062 17.6132 16.2265 17.6326C16.2365 17.6422 16.2466 17.6517 16.256 17.6599C16.2571 17.6609 16.2823 17.6841 16.3137 17.7011L16.4337 17.4794ZM14.1548 14.348L14.3968 14.2774C14.3797 14.219 14.3772 14.1724 14.3809 14.1329L14.1299 14.1094L13.8788 14.0858C13.8691 14.1894 13.8781 14.2999 13.9127 14.4186L14.1548 14.348ZM14.1299 14.1094L13.9322 13.9529C13.7872 14.136 13.749 14.3765 13.8258 14.6364L14.0676 14.5649L14.3094 14.4935C14.2713 14.3646 14.3002 14.3004 14.3275 14.2659L14.1299 14.1094ZM14.0676 14.5649L13.8259 14.6366C13.9188 14.9501 14.1144 15.3071 14.3423 15.656C14.5727 16.0088 14.8469 16.3695 15.1103 16.6932C15.3741 17.0173 15.6293 17.3072 15.8231 17.5186C15.92 17.6243 16.0021 17.7111 16.0629 17.7733C16.0931 17.8042 16.119 17.8301 16.1393 17.8495C16.1493 17.8591 16.1595 17.8686 16.1689 17.8768C16.17 17.8778 16.1951 17.901 16.2266 17.918L16.3466 17.6963L16.4666 17.4746C16.494 17.4894 16.5114 17.5065 16.5015 17.4978C16.4999 17.4964 16.4957 17.4926 16.4881 17.4854C16.4734 17.4713 16.4518 17.4498 16.4236 17.4209C16.3674 17.3634 16.289 17.2806 16.1948 17.1779C16.0066 16.9725 15.758 16.6902 15.5014 16.3749C15.2445 16.0592 14.982 15.7133 14.7645 15.3803C14.5445 15.0434 14.3811 14.7356 14.3094 14.4933L14.0676 14.5649ZM16.3466 17.6963C16.1283 17.8224 16.1282 17.8223 16.1282 17.8223C16.1282 17.8223 16.1282 17.8223 16.1282 17.8223C16.1282 17.8223 16.1282 17.8222 16.1282 17.8222C16.1282 17.8222 16.1282 17.8222 16.1282 17.8222C16.1282 17.8222 16.1282 17.8223 16.1283 17.8224C16.1284 17.8227 16.1287 17.8232 16.1291 17.8239C16.13 17.8254 16.1314 17.8279 16.1332 17.8311C16.1369 17.8377 16.1423 17.8476 16.149 17.8601C16.1624 17.8852 16.1801 17.9198 16.1979 17.958C16.2159 17.9968 16.2325 18.0362 16.2445 18.0714C16.2504 18.0889 16.2546 18.1036 16.2573 18.1152C16.2602 18.1273 16.2605 18.1326 16.2605 18.1321L16.5123 18.1192L16.7641 18.1063C16.7574 17.9766 16.6943 17.8297 16.6552 17.7455C16.6325 17.6967 16.6103 17.6536 16.5939 17.6227C16.5856 17.6072 16.5786 17.5945 16.5736 17.5855C16.5711 17.5811 16.5691 17.5775 16.5676 17.5749C16.5669 17.5736 16.5663 17.5725 16.5658 17.5718C16.5656 17.5714 16.5654 17.5711 16.5653 17.5708C16.5652 17.5707 16.5651 17.5706 16.5651 17.5705C16.5651 17.5704 16.565 17.5704 16.565 17.5703C16.565 17.5703 16.565 17.5703 16.565 17.5703C16.565 17.5702 16.565 17.5702 16.3466 17.6963ZM16.5123 18.1192L16.2604 18.1317C16.2655 18.234 16.3096 18.3208 16.3488 18.381C16.3904 18.445 16.4426 18.5033 16.4942 18.5528C16.5946 18.649 16.7212 18.7386 16.8282 18.7846L16.9278 18.553L17.0275 18.3214C16.9899 18.3052 16.9126 18.2553 16.8432 18.1888C16.81 18.1569 16.7858 18.1281 16.7714 18.106C16.7546 18.0801 16.7628 18.0818 16.7641 18.1067L16.5123 18.1192ZM16.9278 18.553L16.8282 18.7846C16.8906 18.8114 16.9542 18.8165 16.9978 18.8171C17.046 18.8178 17.0959 18.8131 17.1435 18.8059C17.2387 18.7914 17.3435 18.7637 17.4411 18.7285C17.537 18.6939 17.6388 18.6475 17.7218 18.59C17.7632 18.5614 17.809 18.5239 17.8467 18.4759C17.8838 18.4287 17.9269 18.3535 17.9269 18.256H17.6747H17.4226C17.4226 18.2009 17.4468 18.1687 17.4504 18.1641C17.4547 18.1587 17.4523 18.1633 17.4349 18.1753C17.4005 18.1992 17.3426 18.228 17.27 18.2542C17.1988 18.2799 17.126 18.2985 17.0676 18.3074C17.0383 18.3118 17.0175 18.3131 17.0051 18.3129C16.9881 18.3127 17.0012 18.3101 17.0275 18.3214L16.9278 18.553ZM17.6747 18.256H17.9269C17.9269 18.2004 17.9124 18.1547 17.9081 18.1406C17.9062 18.1341 17.9063 18.1348 17.9051 18.1307C17.9045 18.1285 17.9043 18.128 17.9044 18.1283C17.9045 18.1287 17.9064 18.1355 17.9074 18.1462L17.6565 18.1713L17.4057 18.1963C17.4082 18.2214 17.413 18.2424 17.4168 18.2567C17.4201 18.2694 17.4245 18.2834 17.4253 18.2861C17.4271 18.2919 17.4264 18.2902 17.4255 18.286C17.4245 18.2811 17.4226 18.2704 17.4226 18.256H17.6747ZM17.6565 18.1713L17.5164 17.9617C17.4583 18.0005 17.3539 18.0444 17.2456 18.0724C17.1933 18.0859 17.1483 18.0936 17.1157 18.0961C17.0723 18.0995 17.0827 18.0914 17.1155 18.1057L17.015 18.3369L16.9144 18.5681C17.0009 18.6057 17.0959 18.6035 17.1549 18.5989C17.2246 18.5934 17.2997 18.5793 17.372 18.5605C17.513 18.524 17.6757 18.4618 17.7967 18.3809L17.6565 18.1713Z" fill="#C8808B" mask="url(#path-20-inside-2_309_1016)"/>
</g>
<path d="M22.2402 10.5264C23.3794 10.8908 24.2093 11.6755 24.7832 12.4258C25.3859 13.2136 25.6876 13.9303 25.7939 14.1074C25.8245 14.1583 25.8186 14.1872 25.8125 14.2021C25.8041 14.2222 25.7801 14.2507 25.7266 14.2754C25.6179 14.3255 25.4399 14.3344 25.2764 14.2666C25.2433 14.2529 25.1861 14.2188 25.1055 14.1592C25.027 14.1011 24.932 14.0243 24.8262 13.9326C24.6147 13.7495 24.3611 13.5099 24.0986 13.248C23.5725 12.723 23.0188 12.1147 22.71 11.6934V11.6924C22.406 11.2782 22.2945 10.9443 22.2568 10.7207C22.2437 10.6427 22.2404 10.5775 22.2402 10.5264Z" fill="#C8808B" stroke="#C8808B" stroke-width="0.252128"/>
<path opacity="0.4" d="M22.9453 18.6123C22.9346 18.6112 22.9224 18.6122 22.9102 18.6104C22.8427 18.6 22.7621 18.5788 22.6846 18.5508C22.6061 18.5224 22.5368 18.4893 22.4902 18.457C22.4684 18.4419 22.456 18.429 22.4492 18.4209C22.4504 18.3538 22.4609 18.2969 22.4873 18.248C22.5144 18.1979 22.5639 18.1453 22.6602 18.0986C22.6952 18.0816 22.7262 18.0621 22.7568 18.0459C22.8205 18.2346 22.8835 18.4239 22.9453 18.6123Z" fill="#C8808B" stroke="#C8808B" stroke-width="0.252128"/>
<path d="M25.5088 14.0557C25.6376 14.0705 25.7313 14.1235 25.7832 14.1953C25.8332 14.2648 25.859 14.3728 25.8125 14.5293C25.7354 14.7893 25.5638 15.1094 25.3418 15.4492C25.121 15.7871 24.8552 16.1364 24.5967 16.4541C24.3383 16.7716 24.088 17.0558 23.8984 17.2627C23.8036 17.3661 23.7243 17.4501 23.667 17.5088C23.6383 17.5382 23.6157 17.5607 23.5996 17.5762C23.5924 17.5831 23.5866 17.5876 23.583 17.5908L23.5625 17.6025L23.5449 17.6328V17.6348C23.5446 17.6354 23.5435 17.6358 23.543 17.6367C23.5417 17.639 23.5394 17.6424 23.5371 17.6465C23.5325 17.6548 23.5263 17.667 23.5186 17.6816C23.5029 17.7111 23.4814 17.7527 23.46 17.7988C23.4202 17.8844 23.3676 18.0103 23.3623 18.1123V18.1133C23.3618 18.1206 23.3569 18.141 23.335 18.1748C23.3138 18.2073 23.2827 18.2432 23.2451 18.2793C23.168 18.3532 23.0784 18.4139 23.0234 18.4375C23.0275 18.4358 23.0213 18.4381 22.998 18.4385C22.9767 18.4388 22.9479 18.4368 22.9141 18.4316C22.8466 18.4214 22.766 18.401 22.6885 18.373C22.61 18.3447 22.5407 18.3115 22.4941 18.2793C22.4718 18.2638 22.4587 18.2512 22.4521 18.2432C22.4529 18.1757 22.464 18.119 22.4902 18.0703C22.5171 18.0204 22.5666 17.9676 22.6631 17.9209C22.7789 17.8648 22.8904 17.8089 22.9785 17.7529C23.0228 17.7248 23.0648 17.6938 23.0996 17.6611C23.1227 17.6395 23.1428 17.6124 23.1611 17.583C23.1688 17.5758 23.1784 17.5696 23.1846 17.5596L23.1992 17.5342L23.2021 17.5059C23.202 17.5077 23.2041 17.4983 23.2129 17.4707C23.221 17.4455 23.2325 17.4121 23.248 17.3711C23.2791 17.289 23.3238 17.1804 23.3779 17.0527C23.4862 16.7978 23.6322 16.4697 23.7891 16.1328C23.9458 15.7961 24.1128 15.4509 24.2617 15.1602C24.4121 14.8666 24.5405 14.6358 24.6211 14.5234C24.8837 14.1578 25.2501 14.026 25.5088 14.0557ZM23.1768 17.5605C23.1757 17.5623 23.173 17.5628 23.1719 17.5645C23.1728 17.5628 23.174 17.5613 23.1748 17.5596L23.1768 17.5605Z" fill="#C8808B" stroke="#C8808B" stroke-width="0.252128"/>
<g opacity="0.3">
<mask id="path-25-inside-3_309_1016" fill="white">
<path d="M22.9859 18.3369C23.1305 18.2747 23.3938 18.057 23.4015 17.9023C23.4092 17.753 23.5672 17.4794 23.5672 17.4794C23.6332 17.4436 25.5167 15.4597 25.8461 14.348C25.872 14.2594 25.8777 14.1809 25.871 14.1094C25.9572 14.2182 25.9907 14.3706 25.9333 14.5649C25.6039 15.6766 23.7194 17.6605 23.6543 17.6963C23.6543 17.6963 23.4963 17.9699 23.4886 18.1192C23.481 18.2739 23.2177 18.4908 23.0731 18.553C22.9285 18.6152 22.3262 18.4255 22.3262 18.256C22.3262 18.2265 22.3415 18.2 22.3444 18.1713C22.5234 18.291 22.8787 18.3835 22.9859 18.3369Z"/>
</mask>
<path d="M22.9859 18.3369C23.1305 18.2747 23.3938 18.057 23.4015 17.9023C23.4092 17.753 23.5672 17.4794 23.5672 17.4794C23.6332 17.4436 25.5167 15.4597 25.8461 14.348C25.872 14.2594 25.8777 14.1809 25.871 14.1094C25.9572 14.2182 25.9907 14.3706 25.9333 14.5649C25.6039 15.6766 23.7194 17.6605 23.6543 17.6963C23.6543 17.6963 23.4963 17.9699 23.4886 18.1192C23.481 18.2739 23.2177 18.4908 23.0731 18.553C22.9285 18.6152 22.3262 18.4255 22.3262 18.256C22.3262 18.2265 22.3415 18.2 22.3444 18.1713C22.5234 18.291 22.8787 18.3835 22.9859 18.3369Z" fill="#C8808B"/>
<path d="M22.9859 18.3369L22.8863 18.1053L22.8854 18.1057L22.9859 18.3369ZM23.4015 17.9023L23.1497 17.8894L23.1497 17.8898L23.4015 17.9023ZM23.5672 17.4794L23.4472 17.2577L23.3845 17.2916L23.3488 17.3533L23.5672 17.4794ZM25.8461 14.348L26.0879 14.4197L26.0882 14.4186L25.8461 14.348ZM25.871 14.1094L26.0687 13.9529L25.5406 13.286L25.62 14.1329L25.871 14.1094ZM25.9333 14.5649L26.175 14.6366L26.1751 14.6364L25.9333 14.5649ZM23.6543 17.6963L23.5329 17.4753L23.4712 17.5092L23.436 17.5702L23.6543 17.6963ZM23.4886 18.1192L23.2368 18.1063L23.2368 18.1067L23.4886 18.1192ZM22.3444 18.1713L22.4845 17.9617L22.1352 17.7282L22.0935 18.1462L22.3444 18.1713ZM22.9859 18.3369L23.0855 18.5685C23.1928 18.5223 23.3195 18.4324 23.4197 18.3361C23.4714 18.2865 23.5235 18.2281 23.5651 18.1641C23.6043 18.1038 23.6483 18.017 23.6533 17.9148L23.4015 17.9023L23.1497 17.8898C23.1509 17.865 23.1591 17.8634 23.1422 17.8894C23.1278 17.9116 23.1036 17.9405 23.0704 17.9725C23.0009 18.0392 22.9236 18.0892 22.8863 18.1053L22.9859 18.3369ZM23.4015 17.9023L23.6533 17.9152C23.6533 17.9157 23.6536 17.9104 23.6564 17.8983C23.6591 17.8867 23.6633 17.872 23.6693 17.8546C23.6813 17.8193 23.6979 17.7799 23.7159 17.7411C23.7336 17.7029 23.7514 17.6683 23.7648 17.6432C23.7715 17.6307 23.7769 17.6208 23.7806 17.6142C23.7824 17.611 23.7838 17.6085 23.7846 17.607C23.785 17.6063 23.7853 17.6058 23.7855 17.6055C23.7856 17.6054 23.7856 17.6053 23.7856 17.6053C23.7856 17.6053 23.7856 17.6053 23.7856 17.6053C23.7856 17.6053 23.7856 17.6054 23.7856 17.6054C23.7855 17.6054 23.7855 17.6054 23.7855 17.6054C23.7855 17.6054 23.7855 17.6055 23.5672 17.4794C23.3488 17.3533 23.3488 17.3534 23.3488 17.3534C23.3488 17.3534 23.3488 17.3534 23.3488 17.3534C23.3487 17.3535 23.3487 17.3535 23.3487 17.3536C23.3486 17.3537 23.3486 17.3538 23.3485 17.3539C23.3483 17.3542 23.3482 17.3545 23.3479 17.3549C23.3475 17.3557 23.3469 17.3567 23.3462 17.358C23.3447 17.3606 23.3427 17.3642 23.3402 17.3687C23.3351 17.3776 23.3282 17.3903 23.3199 17.4058C23.3034 17.4367 23.2812 17.4798 23.2586 17.5286C23.2194 17.6128 23.1564 17.7597 23.1497 17.8894L23.4015 17.9023ZM23.5672 17.4794L23.6872 17.7011C23.7186 17.6841 23.7438 17.6609 23.7449 17.6599C23.7543 17.6517 23.7644 17.6422 23.7744 17.6326C23.7947 17.6132 23.8207 17.5873 23.8509 17.5564C23.9116 17.4942 23.9938 17.4074 24.0907 17.3017C24.2845 17.0903 24.5397 16.8005 24.8035 16.4763C25.0669 16.1526 25.3411 15.7919 25.5715 15.4391C25.7993 15.0902 25.995 14.7332 26.0879 14.4197L25.8461 14.348L25.6044 14.2764C25.5326 14.5187 25.3693 14.8265 25.1493 15.1634C24.9318 15.4964 24.6692 15.8423 24.4123 16.1581C24.1558 16.4733 23.9072 16.7556 23.7189 16.961C23.6248 17.0637 23.5464 17.1465 23.4902 17.204C23.462 17.2329 23.4403 17.2544 23.4256 17.2685C23.4181 17.2757 23.4139 17.2795 23.4123 17.2809C23.4024 17.2896 23.4198 17.2725 23.4472 17.2577L23.5672 17.4794ZM25.8461 14.348L26.0882 14.4186C26.1228 14.2999 26.1318 14.1894 26.1221 14.0858L25.871 14.1094L25.62 14.1329C25.6237 14.1724 25.6212 14.219 25.6041 14.2774L25.8461 14.348ZM25.871 14.1094L25.6734 14.2659C25.7007 14.3004 25.7296 14.3646 25.6915 14.4935L25.9333 14.5649L26.1751 14.6364C26.2519 14.3765 26.2137 14.136 26.0687 13.9529L25.871 14.1094ZM25.9333 14.5649L25.6915 14.4933C25.6198 14.7355 25.4564 15.0434 25.2363 15.3803C25.0187 15.7133 24.7561 16.0592 24.4991 16.3749C24.2425 16.6902 23.9939 16.9725 23.8057 17.1779C23.7115 17.2806 23.6331 17.3634 23.577 17.421C23.5487 17.4499 23.5271 17.4715 23.5124 17.4856C23.5048 17.4928 23.5006 17.4967 23.4989 17.4982C23.489 17.507 23.5061 17.49 23.5329 17.4753L23.6543 17.6963L23.7757 17.9173C23.8066 17.9003 23.8313 17.8774 23.8324 17.8764C23.8417 17.8682 23.8517 17.8588 23.8616 17.8493C23.8818 17.8299 23.9077 17.8041 23.9378 17.7732C23.9985 17.711 24.0806 17.6243 24.1774 17.5186C24.3712 17.3072 24.6264 17.0174 24.8902 16.6932C25.1537 16.3695 25.428 16.0088 25.6585 15.6561C25.8864 15.3072 26.0821 14.9502 26.175 14.6366L25.9333 14.5649ZM23.6543 17.6963C23.436 17.5702 23.4359 17.5702 23.4359 17.5703C23.4359 17.5703 23.4359 17.5703 23.4359 17.5703C23.4359 17.5704 23.4358 17.5704 23.4358 17.5705C23.4358 17.5706 23.4357 17.5707 23.4356 17.5708C23.4355 17.5711 23.4353 17.5714 23.4351 17.5718C23.4346 17.5725 23.434 17.5736 23.4333 17.5749C23.4318 17.5775 23.4298 17.5811 23.4273 17.5855C23.4223 17.5945 23.4153 17.6072 23.407 17.6227C23.3906 17.6536 23.3684 17.6967 23.3457 17.7455C23.3066 17.8297 23.2435 17.9766 23.2368 18.1063L23.4886 18.1192L23.7404 18.1321C23.7404 18.1326 23.7407 18.1273 23.7436 18.1152C23.7463 18.1036 23.7505 18.0889 23.7564 18.0714C23.7684 18.0362 23.785 17.9968 23.803 17.958C23.8208 17.9198 23.8385 17.8852 23.8519 17.8601C23.8586 17.8476 23.864 17.8377 23.8677 17.8311C23.8695 17.8279 23.8709 17.8254 23.8718 17.8239C23.8722 17.8232 23.8725 17.8227 23.8726 17.8224C23.8727 17.8223 23.8727 17.8222 23.8727 17.8222C23.8728 17.8222 23.8727 17.8222 23.8727 17.8222C23.8727 17.8222 23.8727 17.8223 23.8727 17.8223C23.8727 17.8223 23.8727 17.8223 23.8727 17.8223C23.8727 17.8223 23.8726 17.8224 23.6543 17.6963ZM23.4886 18.1192L23.2368 18.1067C23.2381 18.0818 23.2463 18.0801 23.2295 18.106C23.2151 18.1281 23.1909 18.1569 23.1577 18.1888C23.0883 18.2553 23.011 18.3052 22.9734 18.3214L23.0731 18.553L23.1727 18.7846C23.2797 18.7386 23.4063 18.649 23.5067 18.5528C23.5583 18.5033 23.6105 18.445 23.6521 18.381C23.6913 18.3208 23.7354 18.234 23.7405 18.1317L23.4886 18.1192ZM23.0731 18.553L22.9734 18.3214C22.9997 18.3101 23.0128 18.3127 22.9958 18.3129C22.9834 18.3131 22.9626 18.3118 22.9333 18.3074C22.8749 18.2985 22.8021 18.2799 22.7309 18.2542C22.6583 18.228 22.6004 18.1992 22.566 18.1753C22.5486 18.1633 22.5462 18.1587 22.5505 18.1641C22.5541 18.1687 22.5783 18.2009 22.5783 18.256H22.3262H22.074C22.074 18.3535 22.1171 18.4287 22.1542 18.4759C22.1919 18.5239 22.2377 18.5614 22.2791 18.59C22.3621 18.6475 22.4639 18.6939 22.5598 18.7285C22.6574 18.7637 22.7622 18.7914 22.8574 18.8059C22.905 18.8131 22.9549 18.8178 23.0031 18.8171C23.0467 18.8165 23.1103 18.8114 23.1727 18.7846L23.0731 18.553ZM22.3262 18.256H22.5783C22.5783 18.2704 22.5764 18.2811 22.5754 18.286C22.5745 18.2902 22.5738 18.2919 22.5756 18.2861C22.5764 18.2834 22.5808 18.2694 22.5841 18.2567C22.5879 18.2424 22.5927 18.2214 22.5952 18.1963L22.3444 18.1713L22.0935 18.1462C22.0946 18.1355 22.0964 18.1286 22.0965 18.1283C22.0966 18.128 22.0964 18.1285 22.0958 18.1307C22.0946 18.1348 22.0947 18.1341 22.0928 18.1406C22.0885 18.1547 22.074 18.2004 22.074 18.256H22.3262ZM22.3444 18.1713L22.2042 18.3809C22.3252 18.4618 22.4879 18.524 22.6289 18.5605C22.7012 18.5793 22.7763 18.5934 22.8461 18.5989C22.905 18.6035 23 18.6057 23.0865 18.5681L22.9859 18.3369L22.8854 18.1057C22.9183 18.0914 22.9286 18.0995 22.8852 18.0961C22.8526 18.0936 22.8076 18.0859 22.7553 18.0724C22.647 18.0444 22.5426 18.0005 22.4845 17.9617L22.3444 18.1713Z" fill="#C8808B" mask="url(#path-25-inside-3_309_1016)"/>
</g>
<path d="M19.7588 9.0791C19.889 9.08307 20.0204 9.11101 20.1172 9.15625C20.2207 9.20466 20.2494 9.25379 20.252 9.28125C20.2705 9.47693 20.297 9.66684 20.332 9.83203C20.357 9.94973 20.3873 10.0594 20.4238 10.1514C20.4104 10.1543 20.3956 10.1611 20.3779 10.1641C20.2598 10.1837 20.0877 10.1934 19.9092 10.1914C19.731 10.1894 19.5542 10.1758 19.4268 10.1523C19.3818 10.1441 19.3473 10.1344 19.3223 10.126C19.3289 10.0982 19.3363 10.0658 19.3467 10.0283C19.3645 9.9636 19.3859 9.88592 19.4033 9.80371C19.438 9.6397 19.4587 9.4411 19.3994 9.24023C19.3896 9.2066 19.3948 9.18851 19.3994 9.17871C19.4051 9.16696 19.4186 9.15004 19.4492 9.13281C19.5146 9.09622 19.6263 9.07507 19.7588 9.0791Z" fill="#C8808B" stroke="#C8808B" stroke-width="0.252128"/>
<path opacity="0.4" d="M19.7588 9.0791C19.889 9.08309 20.0205 9.111 20.1172 9.15625C20.2207 9.20466 20.2484 9.25379 20.251 9.28125C20.2669 9.44904 20.2911 9.61092 20.3193 9.75781C20.1602 9.8434 20.003 9.90104 19.8516 9.91211C19.7374 9.92016 19.5861 9.86213 19.4092 9.75488C19.4385 9.60087 19.4534 9.42236 19.3994 9.24023C19.3896 9.20657 19.3938 9.18851 19.3984 9.17871C19.404 9.16694 19.4183 9.1502 19.4492 9.13281C19.5146 9.09626 19.6264 9.07507 19.7588 9.0791Z" fill="#C8808B" stroke="#C8808B" stroke-width="0.252128"/>
<path d="M19.8604 5.55859C20.2163 5.56095 20.5645 5.61556 20.8369 5.72168C21.1129 5.82919 21.2869 5.97969 21.3418 6.1582L21.3428 6.16016C21.6516 7.08618 21.6623 7.87303 21.416 8.50195C21.4015 8.53876 21.3451 8.63228 21.2451 8.75977C21.1482 8.88333 21.0185 9.03001 20.8682 9.1709C20.5618 9.45791 20.192 9.70186 19.8506 9.72656C19.7493 9.73375 19.6152 9.69281 19.459 9.60547C19.3058 9.51983 19.1456 9.39799 18.9971 9.26465C18.8488 9.13151 18.7149 8.98919 18.6143 8.86719C18.564 8.80624 18.5224 8.75169 18.4922 8.70605L18.4424 8.61426L18.4395 8.60742C18.2545 8.12046 18.1856 7.57252 18.1846 7.09863C18.1835 6.61963 18.2515 6.2367 18.3252 6.0752H18.3262C18.3918 5.93126 18.5771 5.79702 18.8672 5.7002C19.1504 5.60567 19.5048 5.55624 19.8604 5.55859Z" fill="#C8808B" stroke="#C8808B" stroke-width="0.252128"/>
<path opacity="0.4" d="M19.8906 5.55859C20.2391 5.56393 20.5782 5.6191 20.8438 5.72363C21.116 5.83082 21.2875 5.98018 21.3418 6.15723L21.3428 6.16016C21.6128 6.96936 21.6542 7.67272 21.4961 8.25781L21.416 8.50195C21.4075 8.52383 21.3803 8.57214 21.3301 8.64355C21.2816 8.71248 21.2163 8.79676 21.1377 8.88672C21.1094 8.91911 21.0782 8.95096 21.0469 8.98438C21.2374 8.54372 21.3531 7.99235 21.2939 7.4873C21.258 7.18103 21.1577 6.88545 20.9658 6.64453C20.7969 6.4326 20.5619 6.26854 20.252 6.1748L20.1143 6.13867C20.0127 6.11585 19.9168 6.0876 19.8271 6.05566L19.6592 5.99512V6.04883C19.3127 6.05866 19.0378 6.14159 18.8262 6.28027C18.5884 6.43624 18.4409 6.65665 18.3584 6.90039C18.2159 7.32126 18.264 7.81797 18.3701 8.21387L18.4189 8.37695C18.4644 8.51522 18.5107 8.65344 18.5576 8.79102C18.5308 8.75613 18.5067 8.72531 18.4883 8.69727C18.4593 8.65305 18.4461 8.62506 18.4424 8.61328L18.4395 8.60742L18.376 8.42188C18.2387 7.98409 18.1855 7.51254 18.1846 7.09766C18.1835 6.61855 18.2515 6.23567 18.3252 6.07422C18.3767 5.96152 18.5041 5.85429 18.7061 5.76562C18.9013 5.67995 19.1496 5.61968 19.4189 5.58789C19.4876 5.5952 19.5499 5.6049 19.6006 5.61816L19.6367 5.62793L19.6719 5.61621C19.7332 5.59602 19.8071 5.57659 19.8906 5.55859Z" fill="#C8808B" stroke="#C8808B" stroke-width="0.252128"/>
<path d="M18.4023 5.72852C18.8242 5.41675 19.1949 5.37984 19.4561 5.41504C19.5882 5.4329 19.6949 5.47014 19.7676 5.50195C19.7773 5.50622 19.7864 5.51063 19.7949 5.51465L19.6904 5.87793C19.3299 5.88378 19.0458 5.96581 18.8281 6.1084C18.5901 6.2644 18.4419 6.48555 18.3594 6.72949C18.1968 7.21023 18.2829 7.7898 18.4199 8.20508C18.5555 8.61593 18.7141 9.03874 18.8262 9.42578C18.8817 9.61752 18.924 9.79533 18.9453 9.95117C18.9667 10.1084 18.965 10.2345 18.9404 10.3281C18.9243 10.3897 18.8562 10.464 18.7139 10.5322C18.5774 10.5976 18.3992 10.6439 18.2178 10.667C18.0361 10.6901 17.8607 10.6884 17.7305 10.6631C17.6652 10.6504 17.6179 10.6332 17.5879 10.6152C17.5734 10.6065 17.5648 10.5988 17.5605 10.5938C17.557 10.5895 17.5567 10.5873 17.5566 10.5869C17.5424 10.5281 17.5465 10.4379 17.5684 10.2969C17.5789 10.2287 17.5919 10.1529 17.6074 10.0684C17.6229 9.9845 17.64 9.89219 17.6562 9.79297C17.7214 9.39423 17.7751 8.87784 17.6836 8.24512C17.5492 7.31701 17.5643 6.3488 18.4023 5.72852Z" fill="#C8808B" stroke="#C8808B" stroke-width="0.252128"/>
<g opacity="0.4">
<mask id="path-32-inside-4_309_1016" fill="white">
<path d="M19.7874 6.00194L19.9444 5.45154C19.9444 5.45154 19.9109 5.4321 19.863 5.40723L19.7319 5.86822C18.1739 5.8348 18.2189 7.22323 18.4851 8.03095C18.7513 8.83789 19.1305 9.75833 19.0079 10.2255C18.895 10.6554 17.6971 10.7969 17.4366 10.5513C17.4385 10.5692 17.4309 10.5995 17.4347 10.615C17.518 10.9579 18.9409 10.8257 19.0635 10.3585C19.1861 9.89048 18.8069 8.97082 18.5407 8.16388C18.2735 7.35772 18.2295 5.96851 19.7874 6.00194Z"/>
</mask>
<path d="M19.7874 6.00194L19.9444 5.45154C19.9444 5.45154 19.9109 5.4321 19.863 5.40723L19.7319 5.86822C18.1739 5.8348 18.2189 7.22323 18.4851 8.03095C18.7513 8.83789 19.1305 9.75833 19.0079 10.2255C18.895 10.6554 17.6971 10.7969 17.4366 10.5513C17.4385 10.5692 17.4309 10.5995 17.4347 10.615C17.518 10.9579 18.9409 10.8257 19.0635 10.3585C19.1861 9.89048 18.8069 8.97082 18.5407 8.16388C18.2735 7.35772 18.2295 5.96851 19.7874 6.00194Z" fill="#C8808B"/>
<path d="M19.7874 6.00194L19.782 6.25401L19.9765 6.25818L20.0298 6.07111L19.7874 6.00194ZM19.9444 5.45154L20.1869 5.52071L20.2408 5.33192L20.0709 5.23343L19.9444 5.45154ZM19.863 5.40723L19.9793 5.1835L19.7051 5.04104L19.6205 5.33822L19.863 5.40723ZM19.7319 5.86822L19.7264 6.12029L19.9211 6.12447L19.9744 5.93723L19.7319 5.86822ZM18.4851 8.03095L18.2457 8.10987L18.2457 8.10993L18.4851 8.03095ZM19.0079 10.2255L19.2518 10.2896L19.2518 10.2895L19.0079 10.2255ZM17.4366 10.5513L17.6096 10.3679L17.1132 9.8997L17.1859 10.5781L17.4366 10.5513ZM17.4347 10.615L17.6797 10.5555L17.6795 10.5547L17.4347 10.615ZM19.0635 10.3585L19.3074 10.4225L19.3074 10.4224L19.0635 10.3585ZM18.5407 8.16388L18.7801 8.08489L18.78 8.08457L18.5407 8.16388ZM19.7874 6.00194L20.0298 6.07111L20.1869 5.52071L19.9444 5.45154L19.702 5.38236L19.5449 5.93276L19.7874 6.00194ZM19.9444 5.45154C20.0709 5.23343 20.0709 5.23343 20.0709 5.23342C20.0709 5.23342 20.0709 5.23342 20.0709 5.23341C20.0709 5.23341 20.0709 5.2334 20.0709 5.2334C20.0708 5.23338 20.0708 5.23337 20.0708 5.23335C20.0707 5.23332 20.0707 5.23329 20.0706 5.23325C20.0705 5.23317 20.0703 5.23307 20.0701 5.23295C20.0697 5.23271 20.0691 5.2324 20.0685 5.23202C20.0671 5.23126 20.0653 5.23021 20.063 5.22891C20.0585 5.22631 20.052 5.22268 20.044 5.21824C20.0281 5.20939 20.0056 5.19719 19.9793 5.1835L19.863 5.40723L19.7468 5.63096C19.7683 5.64214 19.7866 5.6521 19.7994 5.65918C19.8057 5.66271 19.8107 5.66549 19.8139 5.66731C19.8155 5.66822 19.8166 5.66889 19.8173 5.66929C19.8177 5.66949 19.8179 5.66962 19.818 5.66968C19.8181 5.66971 19.8181 5.66972 19.8181 5.66972C19.8181 5.66971 19.8181 5.66971 19.818 5.66969C19.818 5.66969 19.818 5.66968 19.818 5.66967C19.818 5.66967 19.818 5.66966 19.818 5.66966C19.818 5.66966 19.818 5.66965 19.818 5.66965C19.818 5.66965 19.818 5.66965 19.9444 5.45154ZM19.863 5.40723L19.6205 5.33822L19.4894 5.79922L19.7319 5.86822L19.9744 5.93723L20.1055 5.47623L19.863 5.40723ZM19.7319 5.86822L19.7373 5.61615C19.3108 5.607 18.9679 5.69478 18.7042 5.86758C18.4387 6.04154 18.2756 6.2873 18.1856 6.55334C18.0103 7.07134 18.1047 7.68217 18.2457 8.10987L18.4851 8.03095L18.7246 7.95203C18.5993 7.57201 18.5381 7.08476 18.6633 6.71498C18.7234 6.53712 18.8246 6.39156 18.9806 6.28934C19.1383 6.18598 19.3739 6.11273 19.7264 6.12029L19.7319 5.86822ZM18.4851 8.03095L18.2457 8.10993C18.3837 8.52816 18.5387 8.94107 18.6501 9.32577C18.7049 9.51491 18.7455 9.68578 18.7656 9.83311C18.7861 9.98349 18.7826 10.0909 18.7641 10.1616L19.0079 10.2255L19.2518 10.2895C19.2946 10.1266 19.2896 9.94373 19.2652 9.7649C19.2404 9.58303 19.1925 9.38575 19.1345 9.18551C19.0204 8.79145 18.8528 8.34067 18.7246 7.95196L18.4851 8.03095ZM19.0079 10.2255L18.7641 10.1615C18.7627 10.1667 18.7433 10.2114 18.6336 10.2694C18.5321 10.3231 18.3913 10.3669 18.2356 10.3931C18.081 10.4192 17.9258 10.4256 17.8004 10.4135C17.7377 10.4075 17.688 10.3973 17.6521 10.3856C17.6138 10.3732 17.605 10.3636 17.6096 10.3679L17.4366 10.5513L17.2636 10.7347C17.3936 10.8573 17.5916 10.8999 17.7519 10.9154C17.9279 10.9324 18.128 10.9227 18.3195 10.8904C18.51 10.8582 18.7062 10.8014 18.8692 10.7153C19.024 10.6335 19.1967 10.4993 19.2518 10.2896L19.0079 10.2255ZM17.4366 10.5513L17.1859 10.5781C17.1848 10.5682 17.1848 10.5607 17.1848 10.5567C17.1848 10.5525 17.185 10.5497 17.185 10.5491C17.1851 10.5485 17.1851 10.5487 17.1849 10.5505C17.1847 10.5531 17.1846 10.5539 17.1841 10.5585C17.1835 10.5644 17.182 10.5784 17.1816 10.5939C17.1814 10.6021 17.1813 10.6131 17.1822 10.6257C17.183 10.6381 17.185 10.6554 17.1899 10.6753L17.4347 10.615L17.6795 10.5547C17.6834 10.5708 17.6848 10.5837 17.6853 10.5913C17.6858 10.5993 17.6857 10.6052 17.6857 10.6081C17.6856 10.6097 17.6856 10.6109 17.6855 10.6117C17.6855 10.6124 17.6854 10.6128 17.6854 10.6129C17.6854 10.6129 17.6855 10.6126 17.6855 10.6121C17.6856 10.6115 17.6856 10.6107 17.6858 10.6096C17.6859 10.6083 17.6864 10.6032 17.6867 10.5999C17.6871 10.5959 17.6877 10.5903 17.6881 10.5841C17.6885 10.5779 17.689 10.5697 17.689 10.5603C17.6891 10.5512 17.6888 10.5388 17.6873 10.5244L17.4366 10.5513ZM17.4347 10.615L17.1897 10.6746C17.2214 10.8051 17.3119 10.8886 17.3938 10.9378C17.4753 10.9867 17.5694 11.0154 17.6591 11.0328C17.8398 11.0678 18.0575 11.0672 18.2662 11.0406C18.4754 11.014 18.6951 10.9588 18.8779 10.8713C19.0485 10.7896 19.2477 10.6501 19.3074 10.4225L19.0635 10.3585L18.8196 10.2945C18.818 10.3005 18.7933 10.3527 18.6601 10.4165C18.539 10.4745 18.3748 10.5185 18.2025 10.5404C18.0298 10.5624 17.8685 10.5597 17.7551 10.5378C17.6977 10.5266 17.6661 10.5131 17.6533 10.5054C17.641 10.498 17.6688 10.5106 17.6797 10.5555L17.4347 10.615ZM19.0635 10.3585L19.3074 10.4224C19.3501 10.2593 19.3452 10.0764 19.3207 9.89751C19.2959 9.7156 19.248 9.51834 19.19 9.31814C19.0759 8.92421 18.9083 8.47354 18.7801 8.08489L18.5407 8.16388L18.3012 8.24287C18.4392 8.66116 18.5943 9.0738 18.7057 9.45843C18.7605 9.64751 18.801 9.81835 18.8211 9.96571C18.8416 10.1161 18.8382 10.2237 18.8196 10.2946L19.0635 10.3585ZM18.5407 8.16388L18.78 8.08457C18.6544 7.70567 18.5932 7.21869 18.7184 6.84894C18.7787 6.67108 18.8799 6.52544 19.036 6.42315C19.1938 6.31972 19.4295 6.24644 19.782 6.25401L19.7874 6.00194L19.7928 5.74987C19.3664 5.74072 19.0233 5.82855 18.7596 6.00139C18.4941 6.17537 18.3309 6.42115 18.2408 6.68719C18.0654 7.20523 18.1597 7.81593 18.3013 8.24319L18.5407 8.16388Z" fill="#C8808B" mask="url(#path-32-inside-4_309_1016)"/>
</g>
<g opacity="0.3">
<mask id="path-34-inside-5_309_1016" fill="white">
<path d="M17.7156 8.43264C17.5805 7.50054 17.5834 6.46349 18.4835 5.79726C19.1174 5.32849 19.6546 5.43344 19.9208 5.53683L19.9447 5.45443C19.9447 5.45443 19.2275 4.96389 18.3274 5.62934C17.4273 6.2948 17.4254 7.33185 17.5595 8.26473C17.7376 9.49612 17.3498 10.2759 17.434 10.6187C17.4484 10.6778 17.5116 10.7174 17.592 10.7493C17.5346 10.3909 17.8889 9.62984 17.7156 8.43264Z"/>
</mask>
<path d="M17.7156 8.43264C17.5805 7.50054 17.5834 6.46349 18.4835 5.79726C19.1174 5.32849 19.6546 5.43344 19.9208 5.53683L19.9447 5.45443C19.9447 5.45443 19.2275 4.96389 18.3274 5.62934C17.4273 6.2948 17.4254 7.33185 17.5595 8.26473C17.7376 9.49612 17.3498 10.2759 17.434 10.6187C17.4484 10.6778 17.5116 10.7174 17.592 10.7493C17.5346 10.3909 17.8889 9.62984 17.7156 8.43264Z" fill="#C8808B"/>
<path d="M17.7156 8.43264L17.9651 8.39652L17.9651 8.3965L17.7156 8.43264ZM18.4835 5.79726L18.3336 5.59454L18.3335 5.59461L18.4835 5.79726ZM19.9208 5.53683L19.8295 5.77186L20.0861 5.87153L20.1629 5.60717L19.9208 5.53683ZM19.9447 5.45443L20.1869 5.52477L20.2378 5.34941L20.0871 5.24632L19.9447 5.45443ZM17.5595 8.26473L17.3099 8.30059L17.3099 8.30082L17.5595 8.26473ZM17.434 10.6187L17.679 10.5591L17.6789 10.5585L17.434 10.6187ZM17.592 10.7493L17.4991 10.9837L17.9111 11.1469L17.841 10.7094L17.592 10.7493ZM17.7156 8.43264L17.9651 8.3965C17.8312 7.47239 17.8576 6.57426 18.6335 5.99992L18.4835 5.79726L18.3335 5.59461C17.3093 6.35273 17.3299 7.5287 17.466 8.46879L17.7156 8.43264ZM18.4835 5.79726L18.6334 5.99998C19.1818 5.59446 19.6235 5.69182 19.8295 5.77186L19.9208 5.53683L20.0121 5.30181C19.6857 5.17506 19.053 5.06252 18.3336 5.59454L18.4835 5.79726ZM19.9208 5.53683L20.1629 5.60717L20.1869 5.52477L19.9447 5.45443L19.7026 5.38409L19.6787 5.4665L19.9208 5.53683ZM19.9447 5.45443C20.0871 5.24632 20.087 5.24624 20.0868 5.24615C20.0868 5.24612 20.0866 5.24602 20.0865 5.24596C20.0864 5.24583 20.0862 5.2457 20.0859 5.24555C20.0855 5.24527 20.0851 5.24495 20.0845 5.24461C20.0835 5.24392 20.0823 5.24311 20.0809 5.2422C20.0781 5.24037 20.0746 5.23811 20.0704 5.23545C20.0619 5.23015 20.0506 5.22329 20.0365 5.21531C20.0084 5.19937 19.9691 5.17883 19.9197 5.15721C19.8212 5.11409 19.6807 5.06592 19.5074 5.04249C19.1543 4.99475 18.6833 5.05267 18.1775 5.42661L18.3274 5.62934L18.4773 5.83208C18.8716 5.54056 19.2093 5.51103 19.4398 5.5422C19.5584 5.55822 19.6534 5.59109 19.7175 5.61915C19.7494 5.63312 19.7732 5.6457 19.7878 5.65399C19.7951 5.65812 19.8001 5.66116 19.8026 5.66271C19.8038 5.66349 19.8044 5.6639 19.8044 5.66389C19.8044 5.66388 19.8042 5.66377 19.8039 5.66355C19.8037 5.66343 19.8035 5.6633 19.8033 5.66313C19.8031 5.66304 19.803 5.66295 19.8029 5.66285C19.8028 5.66281 19.8027 5.66273 19.8026 5.6627C19.8025 5.66262 19.8024 5.66254 19.9447 5.45443ZM18.3274 5.62934L18.1775 5.42661C17.1531 6.18401 17.1748 7.36031 17.3099 8.30059L17.5595 8.26473L17.809 8.22886C17.676 7.30338 17.7016 6.40559 18.4773 5.83208L18.3274 5.62934ZM17.5595 8.26473L17.3099 8.30082C17.394 8.88181 17.345 9.3567 17.2831 9.73417C17.2676 9.82928 17.2512 9.9179 17.2357 10.0023C17.2204 10.0855 17.2055 10.1664 17.194 10.2409C17.1724 10.3806 17.1548 10.5391 17.1892 10.6789L17.434 10.6187L17.6789 10.5585C17.6711 10.5269 17.6704 10.4593 17.6923 10.3179C17.7025 10.2519 17.716 10.1785 17.7316 10.0936C17.747 10.0098 17.7643 9.91642 17.7808 9.81567C17.8472 9.40972 17.9031 8.87904 17.809 8.22863L17.5595 8.26473ZM17.434 10.6187L17.189 10.6782C17.2142 10.7817 17.2787 10.8511 17.3345 10.894C17.389 10.936 17.4496 10.9641 17.4991 10.9837L17.592 10.7493L17.6849 10.5149C17.6706 10.5092 17.66 10.5043 17.6522 10.5003C17.6443 10.4961 17.6415 10.494 17.642 10.4944C17.6426 10.4948 17.6489 10.4997 17.6566 10.5103C17.6649 10.5215 17.6739 10.538 17.679 10.5591L17.434 10.6187ZM17.592 10.7493L17.841 10.7094C17.8337 10.664 17.8379 10.5856 17.8604 10.4442C17.8712 10.377 17.8846 10.3035 17.8997 10.219C17.9147 10.1355 17.931 10.0435 17.9464 9.9442C18.0084 9.54469 18.0565 9.02826 17.9651 8.39652L17.7156 8.43264L17.466 8.46877C17.5479 9.03421 17.5055 9.49692 17.4481 9.86684C17.4336 9.95994 17.4182 10.0471 17.4034 10.13C17.3887 10.2117 17.3742 10.2915 17.3625 10.3647C17.3402 10.5042 17.3216 10.6554 17.3431 10.7892L17.592 10.7493Z" fill="#C8808B" mask="url(#path-34-inside-5_309_1016)"/>
</g>
<g opacity="0.3">
<path d="M18.9248 10.3604C18.8961 10.4144 18.8309 10.4757 18.7129 10.5322C18.5764 10.5976 18.3983 10.6449 18.2168 10.668C18.0351 10.6911 17.8597 10.6893 17.7295 10.6641C17.6642 10.6514 17.6169 10.6341 17.5869 10.6162C17.5724 10.6075 17.5638 10.5997 17.5596 10.5947L17.5557 10.5879C17.5516 10.571 17.5526 10.5512 17.5518 10.5283C17.6001 10.5465 17.652 10.5626 17.7061 10.5723C17.8699 10.6014 18.071 10.6004 18.2676 10.5742C18.4644 10.548 18.6662 10.4948 18.8301 10.415C18.8626 10.3992 18.8937 10.3797 18.9248 10.3604Z" fill="#C8808B" stroke="#C8808B" stroke-width="0.252128"/>
<mask id="path-37-inside-6_309_1016" fill="white">
<path d="M17.5906 8.87355C17.6088 8.59058 17.6107 8.28118 17.559 7.92202C17.5303 7.72456 17.5112 7.52244 17.5016 7.32031C17.4882 7.63438 17.514 7.95467 17.559 8.2633C17.5916 8.48719 17.5897 8.67921 17.5906 8.87355Z"/>
</mask>
<path d="M17.5906 8.87355C17.6088 8.59058 17.6107 8.28118 17.559 7.92202C17.5303 7.72456 17.5112 7.52244 17.5016 7.32031C17.4882 7.63438 17.514 7.95467 17.559 8.2633C17.5916 8.48719 17.5897 8.67921 17.5906 8.87355Z" fill="#C8808B"/>
<path d="M17.5906 8.87355L17.3385 8.8748L17.8422 8.88973L17.5906 8.87355ZM17.559 7.92202L17.8086 7.88609L17.8085 7.88572L17.559 7.92202ZM17.5016 7.32031L17.7534 7.30838L17.2497 7.30956L17.5016 7.32031ZM17.559 8.2633L17.8085 8.22702L17.8085 8.22692L17.559 8.2633ZM17.5906 8.87355L17.8422 8.88973C17.8612 8.59512 17.8635 8.2674 17.8086 7.88609L17.559 7.92202L17.3095 7.95795C17.358 8.29496 17.3565 8.58604 17.339 8.85738L17.5906 8.87355ZM17.559 7.92202L17.8085 7.88572C17.781 7.69663 17.7626 7.50265 17.7534 7.30838L17.5016 7.32031L17.2497 7.33224C17.2597 7.54222 17.2796 7.75249 17.3095 7.95832L17.559 7.92202ZM17.5016 7.32031L17.2497 7.30956C17.2354 7.64398 17.263 7.98078 17.3096 8.29968L17.559 8.2633L17.8085 8.22692C17.765 7.92856 17.7409 7.62479 17.7535 7.33106L17.5016 7.32031ZM17.559 8.2633L17.3095 8.29958C17.3391 8.50269 17.3375 8.67605 17.3385 8.8748L17.5906 8.87355L17.8428 8.87231C17.8418 8.68236 17.8441 8.47169 17.8085 8.22702L17.559 8.2633Z" fill="#C8808B" mask="url(#path-37-inside-6_309_1016)"/>
<path d="M19.6934 5.87891C19.3032 5.88505 19.0041 5.98036 18.7822 6.14355C18.9564 5.93866 19.2447 5.79229 19.7188 5.78906L19.6934 5.87891Z" fill="#C8808B" stroke="#C8808B" stroke-width="0.252128"/>
</g>
<path d="M20.1299 5.3457C20.7602 5.25931 21.2475 5.46676 21.5527 5.8252C21.8602 6.1864 21.9942 6.71489 21.8867 7.28613C21.7684 7.9183 21.893 8.52428 22.0283 9.05566C22.0969 9.32499 22.1666 9.56938 22.2148 9.7998C22.2629 10.0295 22.2862 10.231 22.2656 10.4062C22.2492 10.5453 22.1576 10.6535 21.9971 10.7314C21.8348 10.8102 21.6163 10.8494 21.3887 10.8496C21.1617 10.8498 20.9374 10.8113 20.7676 10.7451C20.5878 10.675 20.5095 10.5907 20.4961 10.5273C20.4425 10.2739 20.4314 10.1368 20.4834 9.95801C20.5113 9.86211 20.557 9.7533 20.6279 9.6123L20.9229 9.07031C21.1859 8.60266 21.3662 7.9245 21.2949 7.31543C21.259 7.0092 21.1586 6.71355 20.9668 6.47266C20.7737 6.23016 20.4935 6.05045 20.1143 5.9668C19.9219 5.92435 19.7489 5.86269 19.6191 5.79395C19.5544 5.75963 19.5029 5.72532 19.4658 5.69238C19.428 5.65873 19.4106 5.63203 19.4043 5.61523C19.3996 5.6027 19.4011 5.59609 19.4053 5.58789C19.4117 5.57521 19.4308 5.54964 19.4834 5.51855C19.5904 5.4553 19.7928 5.39173 20.1299 5.3457Z" fill="#C8808B" stroke="#C8808B" stroke-width="0.252128"/>
<g opacity="0.2">
<mask id="path-41-inside-7_309_1016" fill="white">
<path d="M20.707 9.24126C20.7721 9.12543 20.8315 8.99482 20.8832 8.85645C20.8593 8.9062 20.8382 8.96217 20.8133 9.00804C20.6122 9.36486 20.4868 9.59808 20.4121 9.78466C20.4839 9.63929 20.5816 9.46437 20.707 9.24126Z"/>
</mask>
<path d="M20.707 9.24126C20.7721 9.12543 20.8315 8.99482 20.8832 8.85645C20.8593 8.9062 20.8382 8.96217 20.8133 9.00804C20.6122 9.36486 20.4868 9.59808 20.4121 9.78466C20.4839 9.63929 20.5816 9.46437 20.707 9.24126Z" fill="#C8808B"/>
<path d="M20.707 9.24126L20.9268 9.36482L20.9268 9.36481L20.707 9.24126ZM20.8832 8.85645L21.1194 8.9447L20.656 8.74713L20.8832 8.85645ZM20.8133 9.00804L21.033 9.13184L21.0349 9.12832L20.8133 9.00804ZM20.4121 9.78466L20.178 9.69096L20.6382 9.89633L20.4121 9.78466ZM20.707 9.24126L20.9268 9.36481C20.9993 9.23591 21.0639 9.09322 21.1194 8.9447L20.8832 8.85645L20.647 8.76819C20.5991 8.89643 20.545 9.01495 20.4873 9.11771L20.707 9.24126ZM20.8832 8.85645L20.656 8.74713C20.6415 8.77728 20.6275 8.81009 20.6177 8.83249C20.6065 8.85811 20.5987 8.87501 20.5917 8.88776L20.8133 9.00804L21.0349 9.12832C21.0529 9.0952 21.068 9.06118 21.0796 9.0349C21.0925 9.00541 21.101 8.98536 21.1104 8.96576L20.8832 8.85645ZM20.8133 9.00804L20.5937 8.88426C20.3941 9.23836 20.26 9.48618 20.178 9.69096L20.4121 9.78466L20.6462 9.87836C20.7136 9.70999 20.8304 9.49137 21.033 9.13182L20.8133 9.00804ZM20.4121 9.78466L20.6382 9.89633C20.7064 9.75818 20.8005 9.58951 20.9268 9.36482L20.707 9.24126L20.4873 9.1177C20.3627 9.33923 20.2614 9.52039 20.1861 9.67299L20.4121 9.78466Z" fill="#C8808B" mask="url(#path-41-inside-7_309_1016)"/>
<path d="M20.7637 5.3623C20.9739 5.40638 21.1581 5.49002 21.3145 5.60352C21.1524 5.4935 20.9678 5.41174 20.7637 5.3623Z" fill="#C8808B" stroke="#C8808B" stroke-width="0.252128"/>
</g>
<g opacity="0.3">
<path d="M19.4238 5.56934C19.4911 5.63193 19.5764 5.68753 19.6699 5.73438C19.7782 5.78858 19.9046 5.83695 20.042 5.875L20.1826 5.90918C20.4908 5.97735 20.7097 6.11489 20.8623 6.29102C20.9425 6.3836 21.0044 6.48953 21.0527 6.60449C20.8816 6.3291 20.6173 6.10975 20.2305 5.99805L20.1133 5.96777C19.8154 5.90192 19.5753 5.79359 19.4629 5.68945C19.406 5.63674 19.4046 5.60654 19.4053 5.60059C19.4057 5.59762 19.4083 5.58637 19.4238 5.56934Z" fill="#C8808B" stroke="#C8808B" stroke-width="0.252128"/>
<path d="M20.4873 10.4834C20.551 10.5492 20.6328 10.6014 20.7178 10.6416C20.8837 10.7201 21.0936 10.7694 21.3086 10.7881C21.5235 10.8068 21.7512 10.7957 21.9561 10.7471C21.7986 10.8139 21.5975 10.8504 21.3877 10.8506C21.1606 10.8508 20.9365 10.8114 20.7666 10.7451C20.6317 10.6925 20.5536 10.6327 20.5176 10.5791L20.4951 10.5283C20.4919 10.513 20.4902 10.4979 20.4873 10.4834Z" fill="#C8808B" stroke="#C8808B" stroke-width="0.252128"/>
</g>
<g opacity="0.3">
<mask id="path-46-inside-8_309_1016" fill="white">
<path d="M20.465 10.4551C20.3549 9.93501 20.4009 9.80751 20.9055 8.9104C21.4101 8.0125 21.593 6.30378 20.1797 5.99204C19.6913 5.88398 19.3074 5.65543 19.384 5.4502C19.0881 5.67564 19.5123 5.9695 20.0868 6.09621C21.5002 6.40795 21.3173 8.11745 20.8126 9.01457C20.308 9.91246 20.262 10.0392 20.3722 10.56C20.4717 11.0288 21.9435 11.1726 22.3045 10.6269C21.8343 11.0436 20.5579 10.8912 20.465 10.4551Z"/>
</mask>
<path d="M20.465 10.4551C20.3549 9.93501 20.4009 9.80751 20.9055 8.9104C21.4101 8.0125 21.593 6.30378 20.1797 5.99204C19.6913 5.88398 19.3074 5.65543 19.384 5.4502C19.0881 5.67564 19.5123 5.9695 20.0868 6.09621C21.5002 6.40795 21.3173 8.11745 20.8126 9.01457C20.308 9.91246 20.262 10.0392 20.3722 10.56C20.4717 11.0288 21.9435 11.1726 22.3045 10.6269C21.8343 11.0436 20.5579 10.8912 20.465 10.4551Z" fill="#C8808B"/>
<path d="M20.465 10.4551L20.2184 10.5073L20.2184 10.5076L20.465 10.4551ZM20.9055 8.9104L21.1253 9.034L21.1253 9.03392L20.9055 8.9104ZM20.1797 5.99204L20.1252 6.23822L20.1254 6.23825L20.1797 5.99204ZM19.384 5.4502L19.6202 5.53836L19.9254 4.7207L19.2312 5.24965L19.384 5.4502ZM20.0868 6.09621L20.1411 5.85L20.1411 5.85L20.0868 6.09621ZM20.8126 9.01457L20.5929 8.89096L20.5928 8.89104L20.8126 9.01457ZM20.3722 10.56L20.1255 10.6122L20.1255 10.6124L20.3722 10.56ZM22.3045 10.6269L22.5148 10.766L22.1373 10.4382L22.3045 10.6269ZM20.465 10.4551L20.7117 10.4029C20.6595 10.1563 20.6535 10.0436 20.6968 9.89456C20.7477 9.71965 20.8677 9.49184 21.1253 9.034L20.9055 8.9104L20.6858 8.78679C20.4387 9.22607 20.2834 9.51056 20.2127 9.75371C20.1344 10.0227 20.1605 10.2338 20.2184 10.5073L20.465 10.4551ZM20.9055 8.9104L21.1253 9.03392C21.3992 8.54661 21.5873 7.84186 21.5123 7.20203C21.4743 6.87875 21.3676 6.55983 21.1575 6.29618C20.945 6.02937 20.6392 5.8352 20.234 5.74583L20.1797 5.99204L20.1254 6.23825C20.4269 6.30475 20.6282 6.44107 20.7631 6.61038C20.9005 6.78285 20.9815 7.00568 21.0114 7.26079C21.0721 7.77773 20.9165 8.37629 20.6857 8.78687L20.9055 8.9104ZM20.1797 5.99204L20.2342 5.74587C20.0086 5.69595 19.8218 5.62088 19.7078 5.54646C19.6497 5.50853 19.6264 5.481 19.6204 5.47153C19.6184 5.46832 19.6352 5.4981 19.6202 5.53836L19.384 5.4502L19.1477 5.36203C19.0944 5.50491 19.1305 5.64022 19.1942 5.74097C19.2539 5.83545 19.3427 5.91029 19.4321 5.96866C19.6131 6.08684 19.8625 6.18008 20.1252 6.23822L20.1797 5.99204ZM19.384 5.4502L19.2312 5.24965C19.1125 5.34005 19.017 5.47954 19.0377 5.65761C19.0559 5.81356 19.1575 5.92885 19.2475 6.00386C19.4327 6.15835 19.7273 6.27512 20.0325 6.34242L20.0868 6.09621L20.1411 5.85C19.8718 5.79059 19.667 5.69708 19.5705 5.61659C19.5195 5.57413 19.5347 5.56576 19.5386 5.59924C19.5451 5.65484 19.5075 5.67306 19.5368 5.65074L19.384 5.4502ZM20.0868 6.09621L20.0325 6.34242C20.334 6.40892 20.5353 6.54527 20.6702 6.71464C20.8076 6.88717 20.8886 7.11008 20.9186 7.36525C20.9792 7.88231 20.8236 8.48084 20.5929 8.89096L20.8126 9.01457L21.0324 9.13818C21.3063 8.65118 21.4944 7.9464 21.4194 7.30649C21.3814 6.98318 21.2747 6.6642 21.0647 6.40049C20.8521 6.13362 20.5463 5.93938 20.1411 5.85L20.0868 6.09621ZM20.8126 9.01457L20.5928 8.89104C20.3458 9.33065 20.1905 9.61516 20.1198 9.85827C20.0415 10.1273 20.0676 10.3384 20.1255 10.6122L20.3722 10.56L20.6188 10.5079C20.5666 10.2608 20.5606 10.1481 20.604 9.99912C20.6548 9.82418 20.7749 9.59638 21.0324 9.13809L20.8126 9.01457ZM20.3722 10.56L20.1255 10.6124C20.1762 10.8512 20.3833 10.9946 20.5619 11.0749C20.754 11.1613 20.9899 11.211 21.2247 11.2255C21.4603 11.2401 21.7114 11.2203 21.9354 11.1545C22.1554 11.0898 22.3788 10.9715 22.5148 10.766L22.3045 10.6269L22.0942 10.4878C22.0497 10.5551 21.9538 10.6235 21.7932 10.6707C21.6365 10.7167 21.4458 10.734 21.2559 10.7223C21.0652 10.7105 20.892 10.6704 20.7687 10.615C20.6322 10.5536 20.6179 10.5033 20.6188 10.5076L20.3722 10.56ZM22.3045 10.6269L22.1373 10.4382C22.0651 10.5022 21.9448 10.5574 21.7823 10.5899C21.6229 10.6219 21.4421 10.628 21.2694 10.61C21.0952 10.5919 20.9432 10.5507 20.8371 10.4984C20.7211 10.4412 20.7106 10.3978 20.7116 10.4026L20.465 10.4551L20.2184 10.5076C20.2659 10.7304 20.4498 10.8696 20.614 10.9506C20.788 11.0365 21.0019 11.0892 21.2172 11.1116C21.434 11.1341 21.6662 11.1275 21.8813 11.0844C22.0933 11.0419 22.3088 10.96 22.4717 10.8156L22.3045 10.6269Z" fill="#C8808B" mask="url(#path-46-inside-8_309_1016)"/>
</g>
<g opacity="0.4">
<mask id="path-48-inside-9_309_1016" fill="white">
<path d="M19.7491 7.71973C19.7491 7.71973 19.6696 8.22737 19.617 8.4326C19.5643 8.63783 20.0919 8.529 20.0919 8.529C20.0919 8.529 19.7491 8.54532 19.7434 8.4085C19.7367 8.27168 19.7491 7.71973 19.7491 7.71973Z"/>
</mask>
<path d="M19.7491 7.71973C19.7491 7.71973 19.6696 8.22737 19.617 8.4326C19.5643 8.63783 20.0919 8.529 20.0919 8.529C20.0919 8.529 19.7491 8.54532 19.7434 8.4085C19.7367 8.27168 19.7491 7.71973 19.7491 7.71973Z" fill="#C8808B"/>
<path d="M19.7491 7.71973L20.0012 7.72541L19.5 7.68073L19.7491 7.71973ZM20.0919 8.529L20.1429 8.77593L20.0799 8.27716L20.0919 8.529ZM19.7434 8.4085L19.9953 8.39792L19.9952 8.39616L19.7434 8.4085ZM19.7491 7.71973C19.5 7.68073 19.5 7.68072 19.5 7.68072C19.5 7.68073 19.5 7.68073 19.5 7.68073C19.5 7.68074 19.5 7.68076 19.5 7.68078C19.5 7.68083 19.5 7.68091 19.5 7.68102C19.4999 7.68124 19.4999 7.68158 19.4998 7.68203C19.4997 7.68295 19.4995 7.68433 19.4992 7.68616C19.4986 7.68981 19.4977 7.69524 19.4966 7.70226C19.4944 7.71629 19.4911 7.73664 19.487 7.76172C19.4789 7.81193 19.4674 7.88091 19.4544 7.95613C19.4277 8.11015 19.3962 8.27859 19.3728 8.36993L19.617 8.4326L19.8612 8.49527C19.8904 8.38138 19.925 8.19338 19.9512 8.04227C19.9646 7.96492 19.9764 7.89417 19.9847 7.84278C19.9889 7.81707 19.9923 7.79615 19.9946 7.78162C19.9957 7.77435 19.9966 7.76868 19.9973 7.7648C19.9976 7.76286 19.9978 7.76137 19.998 7.76035C19.998 7.75984 19.9981 7.75944 19.9981 7.75917C19.9982 7.75904 19.9982 7.75893 19.9982 7.75886C19.9982 7.75882 19.9982 7.75879 19.9982 7.75877C19.9982 7.75876 19.9982 7.75875 19.9982 7.75874C19.9982 7.75873 19.9982 7.75873 19.7491 7.71973ZM19.617 8.4326L19.3728 8.36993C19.3536 8.44443 19.3548 8.53454 19.4026 8.6194C19.4475 8.69906 19.5156 8.74202 19.5667 8.76471C19.6614 8.80671 19.769 8.81072 19.8378 8.80987C19.9158 8.8089 19.9921 8.80014 20.0462 8.79236C20.0739 8.78837 20.0973 8.78443 20.114 8.78142C20.1223 8.77992 20.1291 8.77864 20.134 8.77769C20.1365 8.77721 20.1385 8.77682 20.1399 8.77652C20.1407 8.77637 20.1413 8.77625 20.1418 8.77615C20.142 8.7761 20.1422 8.77605 20.1424 8.77602C20.1425 8.776 20.1426 8.77598 20.1427 8.77597C20.1427 8.77596 20.1428 8.77595 20.1428 8.77595C20.1428 8.77594 20.1429 8.77593 20.0919 8.529C20.041 8.28207 20.041 8.28206 20.0411 8.28205C20.0411 8.28205 20.0411 8.28204 20.0411 8.28204C20.0412 8.28203 20.0412 8.28202 20.0412 8.28202C20.0413 8.28201 20.0413 8.282 20.0413 8.282C20.0413 8.28201 20.0411 8.28204 20.0409 8.28209C20.0404 8.28219 20.0394 8.28238 20.038 8.28265C20.0352 8.2832 20.0307 8.28405 20.0247 8.28512C20.0128 8.28727 19.9953 8.29023 19.9744 8.29324C19.9313 8.29944 19.8789 8.30507 19.8316 8.30565C19.808 8.30594 19.7895 8.30493 19.7763 8.30322C19.7615 8.30132 19.7619 8.29965 19.7712 8.30378C19.7803 8.30781 19.8158 8.32561 19.8419 8.37194C19.871 8.42346 19.8671 8.47208 19.8612 8.49527L19.617 8.4326ZM20.0919 8.529C20.0799 8.27716 20.08 8.27715 20.08 8.27715C20.08 8.27715 20.0801 8.27715 20.0801 8.27715C20.0802 8.27714 20.0802 8.27714 20.0803 8.27714C20.0804 8.27714 20.0804 8.27713 20.0805 8.27713C20.0806 8.27713 20.0806 8.27712 20.0806 8.27713C20.0805 8.27713 20.0801 8.27715 20.0794 8.27717C20.0781 8.27721 20.0757 8.27729 20.0724 8.27735C20.0657 8.27748 20.0555 8.27756 20.043 8.27733C20.0171 8.27684 19.9859 8.27505 19.9574 8.27074C19.9246 8.26581 19.9148 8.26037 19.9196 8.26297C19.9235 8.26504 19.9406 8.27471 19.9584 8.29733C19.9785 8.32301 19.9936 8.35831 19.9953 8.39792L19.7434 8.4085L19.4915 8.41908C19.4982 8.57917 19.6087 8.66834 19.6809 8.70713C19.7516 8.74516 19.8286 8.76129 19.8822 8.76937C19.9401 8.77809 19.9949 8.78077 20.0335 8.78149C20.0533 8.78187 20.0699 8.78174 20.082 8.78151C20.0881 8.7814 20.093 8.78125 20.0967 8.78113C20.0986 8.78106 20.1001 8.78101 20.1013 8.78096C20.1019 8.78093 20.1024 8.78091 20.1029 8.78089C20.1031 8.78088 20.1033 8.78087 20.1035 8.78086C20.1035 8.78086 20.1036 8.78085 20.1037 8.78085C20.1037 8.78085 20.1038 8.78085 20.1038 8.78085C20.1039 8.78084 20.1039 8.78084 20.0919 8.529ZM19.7434 8.4085L19.9952 8.39616C19.9923 8.33774 19.9935 8.17525 19.9958 8.0165C19.997 7.93951 19.9983 7.86669 19.9994 7.81308C19.9999 7.78629 20.0003 7.76433 20.0007 7.74908C20.0008 7.74146 20.001 7.73552 20.001 7.7315C20.0011 7.72948 20.0011 7.72795 20.0012 7.72693C20.0012 7.72642 20.0012 7.72603 20.0012 7.72578C20.0012 7.72565 20.0012 7.72556 20.0012 7.72549C20.0012 7.72546 20.0012 7.72544 20.0012 7.72543C20.0012 7.72542 20.0012 7.72542 20.0012 7.72541C20.0012 7.72541 20.0012 7.72541 19.7491 7.71973C19.4971 7.71404 19.4971 7.71405 19.4971 7.71405C19.4971 7.71406 19.4971 7.71407 19.4971 7.71408C19.4971 7.7141 19.4971 7.71412 19.4971 7.71416C19.4971 7.71423 19.497 7.71434 19.497 7.71448C19.497 7.71476 19.497 7.71516 19.497 7.7157C19.497 7.71677 19.497 7.71836 19.4969 7.72042C19.4968 7.72455 19.4967 7.7306 19.4965 7.73834C19.4962 7.75381 19.4957 7.77604 19.4952 7.80314C19.4941 7.8573 19.4928 7.93101 19.4916 8.00911C19.4894 8.16054 19.4877 8.34244 19.4915 8.42084L19.7434 8.4085Z" fill="#C8808B" mask="url(#path-48-inside-9_309_1016)"/>
</g>
<mask id="path-50-inside-10_309_1016" fill="white">
<path d="M19.3984 8.80494C19.4511 8.76684 20.244 8.80105 20.2708 8.80494C20.2966 8.80882 20.0553 9.04982 19.7661 9.0366C19.4779 9.02261 19.3984 8.80494 19.3984 8.80494Z"/>
</mask>
<path d="M19.3984 8.80494C19.4511 8.76684 20.244 8.80105 20.2708 8.80494C20.2966 8.80882 20.0553 9.04982 19.7661 9.0366C19.4779 9.02261 19.3984 8.80494 19.3984 8.80494Z" fill="#C8808B"/>
<path d="M19.3984 8.80494L19.2507 8.60065L19.0962 8.71236L19.1616 8.89141L19.3984 8.80494ZM20.2708 8.80494L20.3083 8.55561L20.3069 8.55542L20.2708 8.80494ZM19.7661 9.0366L19.7539 9.28843L19.7546 9.28847L19.7661 9.0366ZM19.3984 8.80494L19.5462 9.00923C19.5192 9.02876 19.4953 9.0373 19.4878 9.03988C19.4778 9.04333 19.4707 9.04488 19.4688 9.04529C19.4649 9.0461 19.4661 9.04562 19.4753 9.04469C19.4927 9.04293 19.5208 9.04135 19.5596 9.04037C19.636 9.03842 19.7363 9.03916 19.8391 9.04127C19.9412 9.04337 20.0428 9.04676 20.1205 9.04987C20.1593 9.05142 20.1918 9.05289 20.215 9.05406C20.2477 9.05572 20.2463 9.05615 20.2346 9.05446L20.2708 8.80494L20.3069 8.55542C20.2885 8.55275 20.2565 8.55126 20.2405 8.55045C20.215 8.54916 20.1807 8.54762 20.1406 8.54601C20.0605 8.5428 19.9555 8.5393 19.8495 8.53712C19.7441 8.53496 19.6347 8.53404 19.5468 8.53627C19.5034 8.53738 19.4607 8.53935 19.4246 8.54299C19.407 8.54477 19.3857 8.54745 19.3645 8.55194C19.3554 8.55387 19.3014 8.56399 19.2507 8.60065L19.3984 8.80494ZM20.2708 8.80494L20.2333 9.05426C20.1758 9.04563 20.0941 9.01049 20.0482 8.92126C20.0102 8.84732 20.0208 8.78012 20.0259 8.75616C20.0361 8.70757 20.0588 8.67635 20.0595 8.67535C20.0688 8.66161 20.0742 8.65751 20.0674 8.66417C20.0574 8.67392 20.0347 8.69329 20.0016 8.71421C19.9326 8.75796 19.8515 8.78811 19.7776 8.78474L19.7661 9.0366L19.7546 9.28847C19.9699 9.29831 20.1541 9.21457 20.2715 9.14016C20.3318 9.10199 20.3825 9.06122 20.4196 9.02509C20.4362 9.00882 20.4586 8.98536 20.4773 8.95775C20.4826 8.94981 20.5081 8.91303 20.5192 8.86049C20.5247 8.83456 20.5352 8.76578 20.4966 8.6907C20.4502 8.60033 20.3673 8.56449 20.3083 8.55561L20.2708 8.80494ZM19.7661 9.0366L19.7784 8.78477C19.7034 8.78113 19.6692 8.75404 19.6529 8.73767C19.643 8.7277 19.6367 8.71826 19.6335 8.71273C19.632 8.71008 19.6314 8.70878 19.6317 8.7094C19.6318 8.70973 19.6322 8.71059 19.6328 8.71206C19.6331 8.7128 19.6335 8.71369 19.6339 8.71475C19.6341 8.71528 19.6343 8.71586 19.6345 8.71647C19.6347 8.71678 19.6348 8.7171 19.6349 8.71743C19.635 8.7176 19.635 8.71777 19.6351 8.71794C19.6351 8.71803 19.6352 8.71816 19.6352 8.7182C19.6352 8.71833 19.6353 8.71846 19.3984 8.80494C19.1616 8.89141 19.1617 8.89155 19.1617 8.89168C19.1617 8.89173 19.1618 8.89186 19.1618 8.89195C19.1619 8.89214 19.1619 8.89233 19.162 8.89252C19.1622 8.8929 19.1623 8.8933 19.1625 8.89371C19.1628 8.89454 19.1631 8.89543 19.1635 8.89637C19.1642 8.89826 19.165 8.90037 19.166 8.90271C19.1679 8.90737 19.1703 8.91292 19.1732 8.91923C19.1789 8.93182 19.1868 8.94762 19.1972 8.9656C19.2179 9.00132 19.2495 9.04718 19.2955 9.09337C19.391 9.18934 19.5406 9.27808 19.7539 9.28843L19.7661 9.0366Z" fill="#C8808B" mask="url(#path-50-inside-10_309_1016)"/>
<g opacity="0.3">
<mask id="path-52-inside-11_309_1016" fill="white">
<path d="M20.2057 8.87431C20.2497 8.83778 20.2794 8.80668 20.2708 8.80512C20.2449 8.80046 19.4511 8.76703 19.3984 8.80512C19.3984 8.80512 19.4262 8.84399 19.4444 8.87276C19.5698 8.85021 20.0572 8.86654 20.2057 8.87431Z"/>
</mask>
<path d="M20.2057 8.87431C20.2497 8.83778 20.2794 8.80668 20.2708 8.80512C20.2449 8.80046 19.4511 8.76703 19.3984 8.80512C19.3984 8.80512 19.4262 8.84399 19.4444 8.87276C19.5698 8.85021 20.0572 8.86654 20.2057 8.87431Z" fill="#C8808B"/>
<path d="M20.2057 8.87431L20.1925 9.1261L20.2908 9.13125L20.3666 9.06837L20.2057 8.87431ZM20.2708 8.80512L20.3155 8.557L20.2708 8.80512ZM19.3984 8.80512L19.2507 8.60083L19.0476 8.74773L19.1933 8.95169L19.3984 8.80512ZM19.4444 8.87276L19.2313 9.00754L19.322 9.15092L19.489 9.12091L19.4444 8.87276ZM20.2057 8.87431L20.3666 9.06837C20.3928 9.04664 20.4197 9.02252 20.4412 8.9998C20.4492 8.99129 20.4689 8.97022 20.4857 8.94272C20.4896 8.93632 20.5193 8.8902 20.5238 8.82418C20.5265 8.78447 20.5211 8.71684 20.4725 8.65302C20.4232 8.58821 20.3578 8.56462 20.3155 8.557L20.2708 8.80512L20.226 9.05325C20.1848 9.04582 20.1202 9.02266 20.0713 8.95849C20.0232 8.89531 20.0181 8.82855 20.0207 8.78991C20.0251 8.72603 20.0535 8.68288 20.0552 8.68019C20.0626 8.66792 20.0692 8.65994 20.071 8.65775C20.0723 8.65612 20.0733 8.65497 20.0739 8.65435C20.0742 8.65402 20.0744 8.65378 20.0745 8.65363C20.0747 8.65348 20.0747 8.65341 20.0747 8.6534C20.0747 8.6534 20.0747 8.65346 20.0746 8.65358C20.0744 8.6537 20.0743 8.65387 20.0741 8.6541C20.0736 8.65456 20.073 8.65518 20.0722 8.65597C20.0705 8.65757 20.0683 8.65965 20.0656 8.66216C20.06 8.66723 20.053 8.67338 20.0447 8.68026L20.2057 8.87431ZM20.2708 8.80512L20.3155 8.557C20.2968 8.55362 20.2752 8.55244 20.2744 8.55239C20.2653 8.55178 20.2541 8.55112 20.2414 8.55045C20.2157 8.54909 20.1813 8.5475 20.1412 8.54588C20.0609 8.54263 19.9558 8.53914 19.8497 8.53701C19.7443 8.5349 19.6348 8.53405 19.5467 8.53636C19.5033 8.53749 19.4606 8.53949 19.4245 8.54316C19.4069 8.54495 19.3856 8.54764 19.3644 8.55215C19.3553 8.55407 19.3013 8.56421 19.2507 8.60083L19.3984 8.80512L19.5462 9.00942C19.5192 9.02894 19.4953 9.03747 19.4879 9.04004C19.4779 9.04349 19.4708 9.04504 19.4689 9.04545C19.4651 9.04626 19.4663 9.04576 19.4755 9.04483C19.493 9.04305 19.5211 9.04145 19.5599 9.04044C19.6363 9.03844 19.7368 9.03911 19.8396 9.04117C19.9417 9.04322 20.0433 9.04658 20.1208 9.04972C20.1595 9.05129 20.1918 9.05278 20.2147 9.054C20.2263 9.05461 20.2347 9.05512 20.2402 9.05549C20.2539 9.05641 20.2415 9.05605 20.226 9.05325L20.2708 8.80512ZM19.3984 8.80512C19.1933 8.95169 19.1933 8.95168 19.1933 8.95168C19.1933 8.95168 19.1933 8.95168 19.1933 8.95167C19.1933 8.95167 19.1933 8.95167 19.1933 8.95166C19.1933 8.95166 19.1933 8.95165 19.1933 8.95165C19.1933 8.95165 19.1933 8.95165 19.1933 8.95167C19.1933 8.9517 19.1933 8.95176 19.1934 8.95186C19.1936 8.95206 19.1938 8.9524 19.1941 8.95285C19.1948 8.95377 19.1958 8.95518 19.197 8.95698C19.1996 8.9606 19.2032 8.96574 19.2073 8.97167C19.216 8.98417 19.2251 8.99766 19.2313 9.00754L19.4444 8.87276L19.6575 8.73798C19.6455 8.7191 19.6317 8.69876 19.6219 8.68464C19.6168 8.67726 19.6123 8.67088 19.6091 8.66631C19.6075 8.66402 19.6062 8.66217 19.6052 8.66085C19.6047 8.66019 19.6044 8.65966 19.6041 8.65927C19.604 8.65908 19.6038 8.65892 19.6038 8.6588C19.6037 8.65875 19.6037 8.6587 19.6037 8.65865C19.6036 8.65863 19.6036 8.65862 19.6036 8.6586C19.6036 8.65859 19.6036 8.65859 19.6036 8.65858C19.6036 8.65858 19.6036 8.65857 19.6036 8.65857C19.6036 8.65857 19.6036 8.65856 19.3984 8.80512ZM19.4444 8.87276L19.489 9.12091C19.4889 9.12094 19.4896 9.1208 19.4914 9.12056C19.4931 9.12032 19.4955 9.12002 19.4987 9.11969C19.505 9.11901 19.5133 9.1183 19.5237 9.11761C19.5445 9.11623 19.5706 9.11517 19.6012 9.11446C19.6625 9.11304 19.7363 9.11317 19.8128 9.11427C19.9658 9.11646 20.1215 9.12238 20.1925 9.1261L20.2057 8.87431L20.2188 8.62253C20.1414 8.61847 19.9792 8.61234 19.82 8.61006C19.7404 8.60892 19.6596 8.60872 19.5896 8.61034C19.5251 8.61183 19.4528 8.61507 19.3998 8.62461L19.4444 8.87276Z" fill="#C8808B" mask="url(#path-52-inside-11_309_1016)"/>
</g>
<path d="M19.0479 7.8457C19.0702 7.8457 19.0876 7.85299 19.0967 7.86035C19.1056 7.86761 19.1035 7.87046 19.1035 7.86621C19.1037 7.8633 19.1049 7.86644 19.0967 7.87305C19.0877 7.88021 19.0705 7.8877 19.0479 7.8877C19.0258 7.88763 19.0091 7.88031 19 7.87305C18.9914 7.86606 18.993 7.86263 18.9932 7.86621C18.9932 7.86986 18.9914 7.86728 19 7.86035C19.009 7.85326 19.0255 7.84577 19.0479 7.8457Z" fill="#C8808B" stroke="#C8808B" stroke-width="0.252128"/>
<path d="M19.1035 7.75684V7.83008C19.1284 7.83008 19.1484 7.81318 19.1484 7.79297C19.1482 7.77296 19.1282 7.75761 19.1035 7.75684ZM19.1035 7.75684C19.0788 7.75687 19.0589 7.77297 19.0586 7.79297C19.0586 7.81235 19.0771 7.82783 19.1006 7.8291L19.1035 7.75684Z" fill="#C8808B" stroke="#C8808B" stroke-width="0.252128"/>
<path d="M20.5225 7.8457C20.5449 7.8457 20.5622 7.85299 20.5713 7.86035C20.5802 7.86761 20.5781 7.87046 20.5781 7.86621C20.5783 7.8633 20.5795 7.86644 20.5713 7.87305C20.5623 7.88021 20.5452 7.8877 20.5225 7.8877C20.5004 7.88763 20.4837 7.88031 20.4746 7.87305C20.466 7.86606 20.4676 7.86263 20.4678 7.86621C20.4678 7.86986 20.466 7.86728 20.4746 7.86035C20.4836 7.85326 20.5001 7.84577 20.5225 7.8457Z" fill="#C8808B" stroke="#C8808B" stroke-width="0.252128"/>
<path d="M20.5781 7.8291C20.5907 7.8291 20.6022 7.82507 20.6104 7.81836L20.623 7.79297C20.623 7.77276 20.603 7.75684 20.5781 7.75684M20.5781 7.8291V7.75684M20.5781 7.8291C20.5655 7.82908 20.554 7.82511 20.5459 7.81836L20.5332 7.79297C20.5332 7.77278 20.5533 7.75687 20.5781 7.75684M20.5781 7.8291V7.75684" fill="#C8808B" stroke="#C8808B" stroke-width="0.252128"/>
<mask id="path-58-inside-12_309_1016" fill="white">
<path d="M18.7566 7.65627C18.7566 7.65627 18.9672 7.57542 19.1224 7.57075C19.2765 7.56687 19.3512 7.57075 19.3924 7.55443C19.4336 7.5381 19.492 7.39817 19.3388 7.38806C19.1856 7.37796 19.0438 7.4005 18.8849 7.46269C18.7259 7.52489 18.5488 7.73323 18.7566 7.65627Z"/>
</mask>
<path d="M18.7566 7.65627C18.7566 7.65627 18.9672 7.57542 19.1224 7.57075C19.2765 7.56687 19.3512 7.57075 19.3924 7.55443C19.4336 7.5381 19.492 7.39817 19.3388 7.38806C19.1856 7.37796 19.0438 7.4005 18.8849 7.46269C18.7259 7.52489 18.5488 7.73323 18.7566 7.65627Z" fill="#C8808B"/>
<path d="M18.7566 7.65627L18.8441 7.89271L18.8469 7.89165L18.7566 7.65627ZM19.1224 7.57075L19.116 7.3187L19.1148 7.31874L19.1224 7.57075ZM18.7566 7.65627C18.8469 7.89165 18.8469 7.89166 18.8469 7.89167C18.8468 7.89168 18.8468 7.89168 18.8468 7.89169C18.8468 7.8917 18.8468 7.89171 18.8467 7.89172C18.8467 7.89174 18.8467 7.89175 18.8466 7.89176C18.8466 7.89177 18.8466 7.89177 18.8467 7.89175C18.8468 7.8917 18.8471 7.89159 18.8476 7.89141C18.8485 7.89104 18.8502 7.89041 18.8526 7.88954C18.8573 7.88781 18.8647 7.88516 18.8742 7.88189C18.8932 7.87532 18.9202 7.86645 18.9512 7.8575C19.0181 7.83819 19.0849 7.82412 19.1299 7.82277L19.1224 7.57075L19.1148 7.31874C19.0047 7.32205 18.8886 7.35073 18.8114 7.37302C18.7703 7.38486 18.7349 7.3965 18.7097 7.40523C18.6969 7.40961 18.6866 7.41332 18.6792 7.41602C18.6755 7.41738 18.6726 7.41848 18.6704 7.41931C18.6693 7.41972 18.6684 7.42006 18.6677 7.42032C18.6673 7.42045 18.667 7.42056 18.6668 7.42066C18.6667 7.4207 18.6666 7.42075 18.6665 7.42078C18.6664 7.4208 18.6664 7.42082 18.6663 7.42083C18.6663 7.42084 18.6663 7.42085 18.6663 7.42086C18.6663 7.42087 18.6662 7.42088 18.7566 7.65627ZM19.1224 7.57075L19.1287 7.8228C19.1938 7.82116 19.2672 7.82072 19.3088 7.81922C19.3488 7.81777 19.4191 7.81504 19.4853 7.7888L19.3924 7.55443L19.2995 7.32005C19.3156 7.31365 19.3256 7.31282 19.3217 7.31333C19.3182 7.31379 19.3093 7.31462 19.2906 7.31529C19.2723 7.31595 19.2501 7.31631 19.22 7.31676C19.1909 7.31719 19.156 7.31769 19.116 7.3187L19.1224 7.57075ZM19.3924 7.55443L19.4853 7.7888C19.5739 7.75369 19.6218 7.68324 19.642 7.64778C19.6676 7.60274 19.6895 7.5422 19.6906 7.47285C19.6917 7.39889 19.6681 7.30698 19.5921 7.23406C19.5198 7.1647 19.4299 7.1414 19.3554 7.13648L19.3388 7.38806L19.3222 7.63964C19.322 7.63963 19.3198 7.63948 19.316 7.63872C19.3121 7.63795 19.3062 7.6365 19.2989 7.63378C19.2839 7.62821 19.2633 7.61747 19.243 7.59799C19.1979 7.55466 19.1858 7.50065 19.1864 7.46497C19.1869 7.43392 19.1959 7.41205 19.2039 7.39815C19.2083 7.39027 19.2156 7.37949 19.2271 7.36759C19.2368 7.35759 19.2602 7.3356 19.2995 7.32005L19.3924 7.55443ZM19.3388 7.38806L19.3554 7.13648C19.1624 7.12376 18.9838 7.15326 18.793 7.2279L18.8849 7.46269L18.9767 7.69749C19.1039 7.64774 19.2087 7.63216 19.3222 7.63964L19.3388 7.38806ZM18.8849 7.46269L18.793 7.2279C18.6698 7.2761 18.5483 7.37245 18.4825 7.4591C18.4656 7.48125 18.4393 7.51949 18.4236 7.56899C18.4101 7.6117 18.3823 7.7443 18.4924 7.8495C18.5827 7.93581 18.693 7.92642 18.7222 7.92334C18.767 7.91864 18.8094 7.90555 18.8441 7.8927L18.7566 7.65627L18.669 7.41983C18.6518 7.42622 18.6543 7.42345 18.6696 7.42185C18.6776 7.42101 18.6979 7.41948 18.725 7.42468C18.7525 7.42994 18.7984 7.44447 18.8408 7.48497C18.9408 7.58049 18.9118 7.69786 18.9043 7.72149C18.8988 7.73874 18.8925 7.75035 18.8896 7.75538C18.8864 7.76096 18.8841 7.76394 18.8839 7.76422C18.8837 7.76457 18.8867 7.76072 18.8941 7.75356C18.9012 7.74677 18.9103 7.73892 18.9209 7.73092C18.9435 7.71379 18.9641 7.70243 18.9767 7.69749L18.8849 7.46269Z" fill="#C8808B" mask="url(#path-58-inside-12_309_1016)"/>
<mask id="path-60-inside-13_309_1016" fill="white">
<path d="M20.9202 7.65627C20.9202 7.65627 20.7095 7.57542 20.5544 7.57075C20.4002 7.56687 20.3255 7.57075 20.2844 7.55443C20.2432 7.5381 20.1848 7.39817 20.338 7.38806C20.4922 7.37796 20.6329 7.4005 20.7919 7.46269C20.9508 7.52489 21.128 7.73323 20.9202 7.65627Z"/>
</mask>
<path d="M20.9202 7.65627C20.9202 7.65627 20.7095 7.57542 20.5544 7.57075C20.4002 7.56687 20.3255 7.57075 20.2844 7.55443C20.2432 7.5381 20.1848 7.39817 20.338 7.38806C20.4922 7.37796 20.6329 7.4005 20.7919 7.46269C20.9508 7.52489 21.128 7.73323 20.9202 7.65627Z" fill="#C8808B"/>
<path d="M20.9202 7.65627L20.8298 7.89167L20.8326 7.8927L20.9202 7.65627ZM20.5544 7.57075L20.562 7.31873L20.5608 7.3187L20.5544 7.57075ZM20.338 7.38806L20.3215 7.13647L20.3214 7.13648L20.338 7.38806ZM20.9202 7.65627C21.0105 7.42088 21.0105 7.42087 21.0105 7.42086C21.0105 7.42085 21.0104 7.42084 21.0104 7.42083C21.0104 7.42082 21.0103 7.4208 21.0103 7.42078C21.0102 7.42075 21.0101 7.4207 21.01 7.42066C21.0097 7.42056 21.0094 7.42045 21.0091 7.42032C21.0084 7.42006 21.0075 7.41972 21.0064 7.41931C21.0042 7.41848 21.0012 7.41738 20.9975 7.41602C20.9901 7.41332 20.9798 7.40961 20.9671 7.40523C20.9418 7.3965 20.9064 7.38486 20.8654 7.37302C20.7882 7.35073 20.6721 7.32205 20.562 7.31874L20.5544 7.57075L20.5468 7.82277C20.5919 7.82412 20.6587 7.83819 20.7256 7.8575C20.7566 7.86645 20.7835 7.87532 20.8026 7.88189C20.8121 7.88516 20.8194 7.88781 20.8242 7.88954C20.8265 7.89041 20.8282 7.89104 20.8292 7.89141C20.8297 7.89159 20.83 7.8917 20.8301 7.89175C20.8302 7.89177 20.8302 7.89177 20.8301 7.89176C20.8301 7.89175 20.8301 7.89174 20.83 7.89172C20.83 7.89171 20.83 7.8917 20.8299 7.89169C20.8299 7.89168 20.8299 7.89168 20.8299 7.89167C20.8299 7.89166 20.8299 7.89165 20.9202 7.65627ZM20.5544 7.57075L20.5608 7.3187C20.5207 7.31769 20.4859 7.31719 20.4567 7.31676C20.4267 7.31631 20.4045 7.31595 20.3861 7.31529C20.3674 7.31462 20.3586 7.31379 20.355 7.31333C20.3512 7.31282 20.3612 7.31365 20.3773 7.32005L20.2844 7.55443L20.1914 7.7888C20.2576 7.81504 20.3279 7.81777 20.3679 7.81922C20.4096 7.82072 20.483 7.82116 20.5481 7.8228L20.5544 7.57075ZM20.2844 7.55443L20.3773 7.32005C20.4165 7.3356 20.44 7.35759 20.4497 7.36759C20.4612 7.37949 20.4684 7.39027 20.4729 7.39815C20.4808 7.41205 20.4899 7.43392 20.4904 7.46497C20.4909 7.50065 20.4789 7.55466 20.4337 7.59799C20.4134 7.61747 20.3928 7.62821 20.3778 7.63378C20.3705 7.6365 20.3647 7.63795 20.3608 7.63872C20.3569 7.63948 20.3547 7.63963 20.3546 7.63964L20.338 7.38806L20.3214 7.13648C20.2468 7.1414 20.157 7.1647 20.0847 7.23406C20.0086 7.30698 19.985 7.39889 19.9862 7.47285C19.9873 7.5422 20.0091 7.60274 20.0348 7.64778C20.055 7.68324 20.1029 7.75369 20.1914 7.7888L20.2844 7.55443ZM20.338 7.38806L20.3545 7.63965C20.469 7.63215 20.5728 7.64772 20.7 7.69749L20.7919 7.46269L20.8837 7.2279C20.693 7.15328 20.5154 7.12377 20.3215 7.13647L20.338 7.38806ZM20.7919 7.46269L20.7 7.69749C20.7126 7.70243 20.7333 7.71379 20.7559 7.73092C20.7664 7.73892 20.7756 7.74677 20.7826 7.75356C20.7901 7.76072 20.7931 7.76457 20.7928 7.76422C20.7926 7.76394 20.7903 7.76096 20.7871 7.75538C20.7842 7.75035 20.778 7.73874 20.7725 7.72149C20.765 7.69786 20.736 7.58049 20.836 7.48497C20.8783 7.44447 20.9243 7.42994 20.9517 7.42468C20.9789 7.41948 20.9992 7.42101 21.0072 7.42185C21.0225 7.42345 21.025 7.42622 21.0078 7.41983L20.9202 7.65627L20.8326 7.8927C20.8673 7.90555 20.9097 7.91864 20.9545 7.92334C20.9838 7.92642 21.0941 7.93581 21.1844 7.8495C21.2944 7.7443 21.2667 7.6117 21.2531 7.56899C21.2374 7.51949 21.2111 7.48125 21.1943 7.4591C21.1284 7.37245 21.0069 7.2761 20.8837 7.2279L20.7919 7.46269Z" fill="#C8808B" mask="url(#path-60-inside-13_309_1016)"/>
</svg>
