<svg width="17" height="17" viewBox="0 0 17 17" fill="none" xmlns="http://www.w3.org/2000/svg">
<path d="M10.1449 12.5932C9.65517 12.5932 9.24123 12.4241 8.90307 12.086C8.56492 11.7478 8.39584 11.3339 8.39584 10.8441C8.39584 10.3544 8.56492 9.94045 8.90307 9.6023C9.24123 9.26414 9.65517 9.09507 10.1449 9.09507C10.6347 9.09507 11.0486 9.26414 11.3867 9.6023C11.7249 9.94045 11.894 10.3544 11.894 10.8441C11.894 11.3339 11.7249 11.7478 11.3867 12.086C11.0486 12.4241 10.6347 12.5932 10.1449 12.5932ZM3.49846 15.3917C3.11366 15.3917 2.78414 15.2546 2.50988 14.9803C2.23563 14.7061 2.09874 14.3768 2.0992 13.9925V4.19768C2.0992 3.81288 2.23633 3.48336 2.51058 3.2091C2.78484 2.93485 3.11413 2.79796 3.49846 2.79842H4.19808V1.39917H5.59734V2.79842H11.1944V1.39917H12.5936V2.79842H13.2932C13.678 2.79842 14.0076 2.93555 14.2818 3.2098C14.5561 3.48406 14.693 3.81335 14.6925 4.19768V13.9925C14.6925 14.3772 14.5554 14.7068 14.2811 14.981C14.0069 15.2553 13.6776 15.3922 13.2932 15.3917H3.49846ZM3.49846 13.9925H13.2932V6.99619H3.49846V13.9925Z" fill="#C07E88"/>
</svg>
