<svg width="17" height="17" viewBox="0 0 17 17" fill="none" xmlns="http://www.w3.org/2000/svg">
<path d="M13.4539 10.6764L11.6769 10.4735C11.4679 10.449 11.2561 10.4721 11.0574 10.5412C10.8587 10.6102 10.6782 10.7234 10.5295 10.8723L9.24219 12.1596C7.25608 11.1495 5.64176 9.53516 4.63165 7.54905L5.92596 6.25475C6.2268 5.95391 6.37372 5.53413 6.32475 5.10736L6.12186 3.3443C6.08219 3.003 5.9184 2.68821 5.66167 2.45986C5.40493 2.23151 5.07319 2.10555 4.7296 2.10596H3.51924C2.72867 2.10596 2.07102 2.76361 2.11999 3.55419C2.49079 9.529 7.26924 14.3005 13.2371 14.6713C14.0276 14.7202 14.6853 14.0626 14.6853 13.272V12.0616C14.6923 11.355 14.1606 10.7603 13.4539 10.6764Z" fill="#C07E88"/>
</svg>
