<svg width="19" height="19" viewBox="0 0 19 19" fill="none" xmlns="http://www.w3.org/2000/svg">
<path d="M13.2085 1.5542H5.43809C3.29235 1.5542 1.55288 3.29367 1.55288 5.43941V13.2098C1.55288 15.3556 3.29235 17.095 5.43809 17.095H13.2085C15.3542 17.095 17.0937 15.3556 17.0937 13.2098V5.43941C17.0937 3.29367 15.3542 1.5542 13.2085 1.5542Z" stroke="white" stroke-width="1.55408" stroke-linecap="round" stroke-linejoin="round"/>
<path d="M12.4326 8.83487C12.5285 9.48156 12.418 10.142 12.1169 10.7223C11.8158 11.3026 11.3394 11.7732 10.7554 12.0671C10.1715 12.361 9.50969 12.4633 8.86423 12.3595C8.21877 12.2556 7.6225 11.9509 7.16022 11.4886C6.69794 11.0263 6.3932 10.43 6.28933 9.78458C6.18547 9.13912 6.28778 8.47735 6.5817 7.89339C6.87563 7.30942 7.3462 6.83301 7.9265 6.53191C8.50679 6.2308 9.16725 6.12034 9.81394 6.21624C10.4736 6.31406 11.0843 6.62144 11.5558 7.09298C12.0274 7.56452 12.3348 8.17522 12.4326 8.83487Z" stroke="white" stroke-width="1.55408" stroke-linecap="round" stroke-linejoin="round"/>
<path d="M13.5996 5.05029H13.6079" stroke="white" stroke-width="1.55408" stroke-linecap="round" stroke-linejoin="round"/>
</svg>
