<svg width="24" height="17" viewBox="0 0 24 17" fill="none" xmlns="http://www.w3.org/2000/svg">
<path d="M4.87209 16.9181C2.18131 16.9181 0 14.7368 0 12.046V11.0374C0 8.84021 0.417608 6.81534 1.25282 4.96281C1.89598 3.53626 2.88307 2.09694 4.2141 0.644848C4.93026 -0.136456 6.1204 -0.20415 6.9756 0.421916C8.08665 1.23528 8.15995 2.84536 7.28779 3.91087C6.97539 4.29252 6.70377 4.66471 6.47292 5.02743C6.3409 5.23487 6.21889 5.44334 6.10687 5.65284C5.51044 6.76833 6.45881 7.93548 7.72374 7.93548C8.8396 7.93548 9.74419 8.84007 9.74419 9.95593V12.4268C9.74419 14.9073 7.73335 16.9181 5.25286 16.9181H4.87209ZM18.4444 16.9181C15.7536 16.9181 13.5723 14.7368 13.5723 12.046V11.0374C13.5723 8.84021 13.9899 6.81534 14.8251 4.96281C15.4682 3.53626 16.4553 2.09694 17.7864 0.644848C18.5025 -0.136456 19.6927 -0.20415 20.5479 0.421916C21.6589 1.23528 21.7322 2.84536 20.86 3.91087C20.5477 4.29252 20.276 4.66471 20.0452 5.02743C19.9132 5.23487 19.7911 5.44334 19.6791 5.65284C19.0827 6.76833 20.0311 7.93548 21.296 7.93548C22.4119 7.93548 23.3164 8.84007 23.3164 9.95593V12.4268C23.3164 14.9073 21.3056 16.9181 18.8251 16.9181H18.4444Z" fill="#F5F5F5"/>
</svg>
