<svg width="19" height="19" viewBox="0 0 19 19" fill="none" xmlns="http://www.w3.org/2000/svg">
<g clip-path="url(#clip0_1_471)">
<path d="M1.94362 13.2096C1.40079 10.6479 1.40079 8.00088 1.94362 5.43918C2.01494 5.17903 2.15275 4.94193 2.34349 4.75119C2.53423 4.56045 2.77133 4.42264 3.03147 4.35132C7.1991 3.66089 11.4519 3.66089 15.6196 4.35132C15.8797 4.42264 16.1168 4.56045 16.3075 4.75119C16.4983 4.94193 16.6361 5.17903 16.7074 5.43918C17.2502 8.00088 17.2502 10.6479 16.7074 13.2096C16.6361 13.4697 16.4983 13.7068 16.3075 13.8976C16.1168 14.0883 15.8797 14.2261 15.6196 14.2975C11.4519 14.988 7.19909 14.988 3.03147 14.2975C2.77133 14.2261 2.53423 14.0883 2.34349 13.8976C2.15275 13.7068 2.01494 13.4697 1.94362 13.2096Z" stroke="white" stroke-width="1.55408" stroke-linecap="round" stroke-linejoin="round"/>
<path d="M7.76755 11.6559L11.6528 9.32478L7.76755 6.99365V11.6559Z" stroke="white" stroke-width="1.55408" stroke-linecap="round" stroke-linejoin="round"/>
</g>
<defs>
<clipPath id="clip0_1_471">
<rect width="18.649" height="18.649" fill="white"/>
</clipPath>
</defs>
</svg>
